<svg xmlns="http://www.w3.org/2000/svg" xmlns:xlink="http://www.w3.org/1999/xlink" width="614.4" height="460.8" version="1.1" viewBox="0 0 460.8 345.6"><metadata><rdf:RDF xmlns:cc="http://creativecommons.org/ns#" xmlns:dc="http://purl.org/dc/elements/1.1/" xmlns:rdf="http://www.w3.org/1999/02/22-rdf-syntax-ns#"><cc:Work><dc:type rdf:resource="http://purl.org/dc/dcmitype/StillImage"/><dc:date>2021-08-17T12:40:09.238754</dc:date><dc:format>image/svg+xml</dc:format><dc:creator><cc:Agent><dc:title>Matplotlib v3.3.4, https://matplotlib.org/</dc:title></cc:Agent></dc:creator></cc:Work></rdf:RDF></metadata><defs><style type="text/css">*{stroke-linecap:butt;stroke-linejoin:round}</style></defs><g id="figure_1"><g id="patch_1"><path d="M 0 345.6 L 460.8 345.6 L 460.8 0 L 0 0 z"/></g><g id="axes_1"><g id="patch_2"><path d="M 57.6 307.584 L 414.72 307.584 L 414.72 41.472 L 57.6 41.472 z"/></g><g id="matplotlib.axis_1"><g id="xtick_1"><g id="line2d_1"><path d="M 73.832727 307.584 L 73.832727 41.472" clip-path="url(#p7afac4808e)" style="fill:none;stroke:#fff;stroke-linecap:square;stroke-width:.8"/></g><g id="line2d_2"><defs><path id="m8a0817c84c" d="M 0 0 L 0 3.5" style="stroke:#fff;stroke-width:.8"/></defs><g><use style="fill:#fff;stroke:#fff;stroke-width:.8" x="73.833" y="307.584" xlink:href="#m8a0817c84c"/></g></g><g id="text_1"><g style="fill:#fff" transform="translate(70.651477 322.182437)scale(0.1 -0.1)"><defs><path id="DejaVuSans-48" d="M 31.78125 66.40625 Q 24.171875 66.40625 20.328125 58.90625 Q 16.5 51.421875 16.5 36.375 Q 16.5 21.390625 20.328125 13.890625 Q 24.171875 6.390625 31.78125 6.390625 Q 39.453125 6.390625 43.28125 13.890625 Q 47.125 21.390625 47.125 36.375 Q 47.125 51.421875 43.28125 58.90625 Q 39.453125 66.40625 31.78125 66.40625 z M 31.78125 74.21875 Q 44.046875 74.21875 50.515625 64.515625 Q 56.984375 54.828125 56.984375 36.375 Q 56.984375 17.96875 50.515625 8.265625 Q 44.046875 -1.421875 31.78125 -1.421875 Q 19.53125 -1.421875 13.0625 8.265625 Q 6.59375 17.96875 6.59375 36.375 Q 6.59375 54.828125 13.0625 64.515625 Q 19.53125 74.21875 31.78125 74.21875 z"/></defs><use xlink:href="#DejaVuSans-48"/></g></g></g><g id="xtick_2"><g id="line2d_3"><path d="M 137.241818 307.584 L 137.241818 41.472" clip-path="url(#p7afac4808e)" style="fill:none;stroke:#fff;stroke-linecap:square;stroke-width:.8"/></g><g id="line2d_4"><g><use style="fill:#fff;stroke:#fff;stroke-width:.8" x="137.242" y="307.584" xlink:href="#m8a0817c84c"/></g></g><g id="text_2"><g style="fill:#fff" transform="translate(130.879318 322.182437)scale(0.1 -0.1)"><defs><path id="DejaVuSans-53" d="M 10.796875 72.90625 L 49.515625 72.90625 L 49.515625 64.59375 L 19.828125 64.59375 L 19.828125 46.734375 Q 21.96875 47.46875 24.109375 47.828125 Q 26.265625 48.1875 28.421875 48.1875 Q 40.625 48.1875 47.75 41.5 Q 54.890625 34.8125 54.890625 23.390625 Q 54.890625 11.625 47.5625 5.09375 Q 40.234375 -1.421875 26.90625 -1.421875 Q 22.3125 -1.421875 17.546875 -0.640625 Q 12.796875 0.140625 7.71875 1.703125 L 7.71875 11.625 Q 12.109375 9.234375 16.796875 8.0625 Q 21.484375 6.890625 26.703125 6.890625 Q 35.15625 6.890625 40.078125 11.328125 Q 45.015625 15.765625 45.015625 23.390625 Q 45.015625 31 40.078125 35.4375 Q 35.15625 39.890625 26.703125 39.890625 Q 22.75 39.890625 18.8125 39.015625 Q 14.890625 38.140625 10.796875 36.28125 z"/></defs><use xlink:href="#DejaVuSans-53"/><use x="63.623" xlink:href="#DejaVuSans-48"/></g></g></g><g id="xtick_3"><g id="line2d_5"><path d="M 200.650909 307.584 L 200.650909 41.472" clip-path="url(#p7afac4808e)" style="fill:none;stroke:#fff;stroke-linecap:square;stroke-width:.8"/></g><g id="line2d_6"><g><use style="fill:#fff;stroke:#fff;stroke-width:.8" x="200.651" y="307.584" xlink:href="#m8a0817c84c"/></g></g><g id="text_3"><g style="fill:#fff" transform="translate(191.107159 322.182437)scale(0.1 -0.1)"><defs><path id="DejaVuSans-49" d="M 12.40625 8.296875 L 28.515625 8.296875 L 28.515625 63.921875 L 10.984375 60.40625 L 10.984375 69.390625 L 28.421875 72.90625 L 38.28125 72.90625 L 38.28125 8.296875 L 54.390625 8.296875 L 54.390625 0 L 12.40625 0 z"/></defs><use xlink:href="#DejaVuSans-49"/><use x="63.623" xlink:href="#DejaVuSans-48"/><use x="127.246" xlink:href="#DejaVuSans-48"/></g></g></g><g id="xtick_4"><g id="line2d_7"><path d="M 264.06 307.584 L 264.06 41.472" clip-path="url(#p7afac4808e)" style="fill:none;stroke:#fff;stroke-linecap:square;stroke-width:.8"/></g><g id="line2d_8"><g><use style="fill:#fff;stroke:#fff;stroke-width:.8" x="264.06" y="307.584" xlink:href="#m8a0817c84c"/></g></g><g id="text_4"><g style="fill:#fff" transform="translate(254.51625 322.182437)scale(0.1 -0.1)"><use xlink:href="#DejaVuSans-49"/><use x="63.623" xlink:href="#DejaVuSans-53"/><use x="127.246" xlink:href="#DejaVuSans-48"/></g></g></g><g id="xtick_5"><g id="line2d_9"><path d="M 327.469091 307.584 L 327.469091 41.472" clip-path="url(#p7afac4808e)" style="fill:none;stroke:#fff;stroke-linecap:square;stroke-width:.8"/></g><g id="line2d_10"><g><use style="fill:#fff;stroke:#fff;stroke-width:.8" x="327.469" y="307.584" xlink:href="#m8a0817c84c"/></g></g><g id="text_5"><g style="fill:#fff" transform="translate(317.925341 322.182437)scale(0.1 -0.1)"><defs><path id="DejaVuSans-50" d="M 19.1875 8.296875 L 53.609375 8.296875 L 53.609375 0 L 7.328125 0 L 7.328125 8.296875 Q 12.9375 14.109375 22.625 23.890625 Q 32.328125 33.6875 34.8125 36.53125 Q 39.546875 41.84375 41.421875 45.53125 Q 43.3125 49.21875 43.3125 52.78125 Q 43.3125 58.59375 39.234375 62.25 Q 35.15625 65.921875 28.609375 65.921875 Q 23.96875 65.921875 18.8125 64.3125 Q 13.671875 62.703125 7.8125 59.421875 L 7.8125 69.390625 Q 13.765625 71.78125 18.9375 73 Q 24.125 74.21875 28.421875 74.21875 Q 39.75 74.21875 46.484375 68.546875 Q 53.21875 62.890625 53.21875 53.421875 Q 53.21875 48.921875 51.53125 44.890625 Q 49.859375 40.875 45.40625 35.40625 Q 44.1875 33.984375 37.640625 27.21875 Q 31.109375 20.453125 19.1875 8.296875 z"/></defs><use xlink:href="#DejaVuSans-50"/><use x="63.623" xlink:href="#DejaVuSans-48"/><use x="127.246" xlink:href="#DejaVuSans-48"/></g></g></g><g id="xtick_6"><g id="line2d_11"><path d="M 390.878182 307.584 L 390.878182 41.472" clip-path="url(#p7afac4808e)" style="fill:none;stroke:#fff;stroke-linecap:square;stroke-width:.8"/></g><g id="line2d_12"><g><use style="fill:#fff;stroke:#fff;stroke-width:.8" x="390.878" y="307.584" xlink:href="#m8a0817c84c"/></g></g><g id="text_6"><g style="fill:#fff" transform="translate(381.334432 322.182437)scale(0.1 -0.1)"><use xlink:href="#DejaVuSans-50"/><use x="63.623" xlink:href="#DejaVuSans-53"/><use x="127.246" xlink:href="#DejaVuSans-48"/></g></g></g><g id="text_7"><g style="fill:#fff" transform="translate(188.963125 335.860562)scale(0.1 -0.1)"><defs><path id="DejaVuSans-68" d="M 19.671875 64.796875 L 19.671875 8.109375 L 31.59375 8.109375 Q 46.6875 8.109375 53.6875 14.9375 Q 60.6875 21.78125 60.6875 36.53125 Q 60.6875 51.171875 53.6875 57.984375 Q 46.6875 64.796875 31.59375 64.796875 z M 9.8125 72.90625 L 30.078125 72.90625 Q 51.265625 72.90625 61.171875 64.09375 Q 71.09375 55.28125 71.09375 36.53125 Q 71.09375 17.671875 61.125 8.828125 Q 51.171875 0 30.078125 0 L 9.8125 0 z"/><path id="DejaVuSans-97" d="M 34.28125 27.484375 Q 23.390625 27.484375 19.1875 25 Q 14.984375 22.515625 14.984375 16.5 Q 14.984375 11.71875 18.140625 8.90625 Q 21.296875 6.109375 26.703125 6.109375 Q 34.1875 6.109375 38.703125 11.40625 Q 43.21875 16.703125 43.21875 25.484375 L 43.21875 27.484375 z M 52.203125 31.203125 L 52.203125 0 L 43.21875 0 L 43.21875 8.296875 Q 40.140625 3.328125 35.546875 0.953125 Q 30.953125 -1.421875 24.3125 -1.421875 Q 15.921875 -1.421875 10.953125 3.296875 Q 6 8.015625 6 15.921875 Q 6 25.140625 12.171875 29.828125 Q 18.359375 34.515625 30.609375 34.515625 L 43.21875 34.515625 L 43.21875 35.40625 Q 43.21875 41.609375 39.140625 45 Q 35.0625 48.390625 27.6875 48.390625 Q 23 48.390625 18.546875 47.265625 Q 14.109375 46.140625 10.015625 43.890625 L 10.015625 52.203125 Q 14.9375 54.109375 19.578125 55.046875 Q 24.21875 56 28.609375 56 Q 40.484375 56 46.34375 49.84375 Q 52.203125 43.703125 52.203125 31.203125 z"/><path id="DejaVuSans-121" d="M 32.171875 -5.078125 Q 28.375 -14.84375 24.75 -17.8125 Q 21.140625 -20.796875 15.09375 -20.796875 L 7.90625 -20.796875 L 7.90625 -13.28125 L 13.1875 -13.28125 Q 16.890625 -13.28125 18.9375 -11.515625 Q 21 -9.765625 23.484375 -3.21875 L 25.09375 0.875 L 2.984375 54.6875 L 12.5 54.6875 L 29.59375 11.921875 L 46.6875 54.6875 L 56.203125 54.6875 z"/><path id="DejaVuSans-115" d="M 44.28125 53.078125 L 44.28125 44.578125 Q 40.484375 46.53125 36.375 47.5 Q 32.28125 48.484375 27.875 48.484375 Q 21.1875 48.484375 17.84375 46.4375 Q 14.5 44.390625 14.5 40.28125 Q 14.5 37.15625 16.890625 35.375 Q 19.28125 33.59375 26.515625 31.984375 L 29.59375 31.296875 Q 39.15625 29.25 43.1875 25.515625 Q 47.21875 21.78125 47.21875 15.09375 Q 47.21875 7.46875 41.1875 3.015625 Q 35.15625 -1.421875 24.609375 -1.421875 Q 20.21875 -1.421875 15.453125 -0.5625 Q 10.6875 0.296875 5.421875 2 L 5.421875 11.28125 Q 10.40625 8.6875 15.234375 7.390625 Q 20.0625 6.109375 24.8125 6.109375 Q 31.15625 6.109375 34.5625 8.28125 Q 37.984375 10.453125 37.984375 14.40625 Q 37.984375 18.0625 35.515625 20.015625 Q 33.0625 21.96875 24.703125 23.78125 L 21.578125 24.515625 Q 13.234375 26.265625 9.515625 29.90625 Q 5.8125 33.546875 5.8125 39.890625 Q 5.8125 47.609375 11.28125 51.796875 Q 16.75 56 26.8125 56 Q 31.78125 56 36.171875 55.265625 Q 40.578125 54.546875 44.28125 53.078125 z"/><path id="DejaVuSans-32"/><path id="DejaVuSans-65" d="M 34.1875 63.1875 L 20.796875 26.90625 L 47.609375 26.90625 z M 28.609375 72.90625 L 39.796875 72.90625 L 67.578125 0 L 57.328125 0 L 50.6875 18.703125 L 17.828125 18.703125 L 11.1875 0 L 0.78125 0 z"/><path id="DejaVuSans-102" d="M 37.109375 75.984375 L 37.109375 68.5 L 28.515625 68.5 Q 23.6875 68.5 21.796875 66.546875 Q 19.921875 64.59375 19.921875 59.515625 L 19.921875 54.6875 L 34.71875 54.6875 L 34.71875 47.703125 L 19.921875 47.703125 L 19.921875 0 L 10.890625 0 L 10.890625 47.703125 L 2.296875 47.703125 L 2.296875 54.6875 L 10.890625 54.6875 L 10.890625 58.5 Q 10.890625 67.625 15.140625 71.796875 Q 19.390625 75.984375 28.609375 75.984375 z"/><path id="DejaVuSans-116" d="M 18.3125 70.21875 L 18.3125 54.6875 L 36.8125 54.6875 L 36.8125 47.703125 L 18.3125 47.703125 L 18.3125 18.015625 Q 18.3125 11.328125 20.140625 9.421875 Q 21.96875 7.515625 27.59375 7.515625 L 36.8125 7.515625 L 36.8125 0 L 27.59375 0 Q 17.1875 0 13.234375 3.875 Q 9.28125 7.765625 9.28125 18.015625 L 9.28125 47.703125 L 2.6875 47.703125 L 2.6875 54.6875 L 9.28125 54.6875 L 9.28125 70.21875 z"/><path id="DejaVuSans-101" d="M 56.203125 29.59375 L 56.203125 25.203125 L 14.890625 25.203125 Q 15.484375 15.921875 20.484375 11.0625 Q 25.484375 6.203125 34.421875 6.203125 Q 39.59375 6.203125 44.453125 7.46875 Q 49.3125 8.734375 54.109375 11.28125 L 54.109375 2.78125 Q 49.265625 0.734375 44.1875 -0.34375 Q 39.109375 -1.421875 33.890625 -1.421875 Q 20.796875 -1.421875 13.15625 6.1875 Q 5.515625 13.8125 5.515625 26.8125 Q 5.515625 40.234375 12.765625 48.109375 Q 20.015625 56 32.328125 56 Q 43.359375 56 49.78125 48.890625 Q 56.203125 41.796875 56.203125 29.59375 z M 47.21875 32.234375 Q 47.125 39.59375 43.09375 43.984375 Q 39.0625 48.390625 32.421875 48.390625 Q 24.90625 48.390625 20.390625 44.140625 Q 15.875 39.890625 15.1875 32.171875 z"/><path id="DejaVuSans-114" d="M 41.109375 46.296875 Q 39.59375 47.171875 37.8125 47.578125 Q 36.03125 48 33.890625 48 Q 26.265625 48 22.1875 43.046875 Q 18.109375 38.09375 18.109375 28.8125 L 18.109375 0 L 9.078125 0 L 9.078125 54.6875 L 18.109375 54.6875 L 18.109375 46.1875 Q 20.953125 51.171875 25.484375 53.578125 Q 30.03125 56 36.53125 56 Q 37.453125 56 38.578125 55.875 Q 39.703125 55.765625 41.0625 55.515625 z"/><path id="DejaVuSans-82" d="M 44.390625 34.1875 Q 47.5625 33.109375 50.5625 29.59375 Q 53.5625 26.078125 56.59375 19.921875 L 66.609375 0 L 56 0 L 46.6875 18.703125 Q 43.0625 26.03125 39.671875 28.421875 Q 36.28125 30.8125 30.421875 30.8125 L 19.671875 30.8125 L 19.671875 0 L 9.8125 0 L 9.8125 72.90625 L 32.078125 72.90625 Q 44.578125 72.90625 50.734375 67.671875 Q 56.890625 62.453125 56.890625 51.90625 Q 56.890625 45.015625 53.6875 40.46875 Q 50.484375 35.9375 44.390625 34.1875 z M 19.671875 64.796875 L 19.671875 38.921875 L 32.078125 38.921875 Q 39.203125 38.921875 42.84375 42.21875 Q 46.484375 45.515625 46.484375 51.90625 Q 46.484375 58.296875 42.84375 61.546875 Q 39.203125 64.796875 32.078125 64.796875 z"/><path id="DejaVuSans-108" d="M 9.421875 75.984375 L 18.40625 75.984375 L 18.40625 0 L 9.421875 0 z"/></defs><use xlink:href="#DejaVuSans-68"/><use x="77.002" xlink:href="#DejaVuSans-97"/><use x="138.281" xlink:href="#DejaVuSans-121"/><use x="197.461" xlink:href="#DejaVuSans-115"/><use x="249.561" xlink:href="#DejaVuSans-32"/><use x="281.348" xlink:href="#DejaVuSans-65"/><use x="346.131" xlink:href="#DejaVuSans-102"/><use x="379.586" xlink:href="#DejaVuSans-116"/><use x="418.795" xlink:href="#DejaVuSans-101"/><use x="480.318" xlink:href="#DejaVuSans-114"/><use x="521.432" xlink:href="#DejaVuSans-32"/><use x="553.219" xlink:href="#DejaVuSans-82"/><use x="618.201" xlink:href="#DejaVuSans-101"/><use x="679.725" xlink:href="#DejaVuSans-108"/><use x="707.508" xlink:href="#DejaVuSans-101"/><use x="769.031" xlink:href="#DejaVuSans-97"/><use x="830.311" xlink:href="#DejaVuSans-115"/><use x="882.41" xlink:href="#DejaVuSans-101"/></g></g></g><g id="matplotlib.axis_2"><g id="ytick_1"><g id="line2d_13"><path d="M 57.6 307.584 L 414.72 307.584" clip-path="url(#p7afac4808e)" style="fill:none;stroke:#fff;stroke-linecap:square;stroke-width:.8"/></g><g id="line2d_14"><defs><path id="m4ae069277f" d="M 0 0 L -3.5 0" style="stroke:#fff;stroke-width:.8"/></defs><g><use style="fill:#fff;stroke:#fff;stroke-width:.8" x="57.6" y="307.584" xlink:href="#m4ae069277f"/></g></g><g id="text_8"><g style="fill:#fff" transform="translate(44.2375 311.383219)scale(0.1 -0.1)"><use xlink:href="#DejaVuSans-48"/></g></g></g><g id="ytick_2"><g id="line2d_15"><path d="M 57.6 274.32 L 414.72 274.32" clip-path="url(#p7afac4808e)" style="fill:none;stroke:#fff;stroke-linecap:square;stroke-width:.8"/></g><g id="line2d_16"><g><use style="fill:#fff;stroke:#fff;stroke-width:.8" x="57.6" y="274.32" xlink:href="#m4ae069277f"/></g></g><g id="text_9"><g style="fill:#fff" transform="translate(44.2375 278.119219)scale(0.1 -0.1)"><use xlink:href="#DejaVuSans-49"/></g></g></g><g id="ytick_3"><g id="line2d_17"><path d="M 57.6 241.056 L 414.72 241.056" clip-path="url(#p7afac4808e)" style="fill:none;stroke:#fff;stroke-linecap:square;stroke-width:.8"/></g><g id="line2d_18"><g><use style="fill:#fff;stroke:#fff;stroke-width:.8" x="57.6" y="241.056" xlink:href="#m4ae069277f"/></g></g><g id="text_10"><g style="fill:#fff" transform="translate(44.2375 244.855219)scale(0.1 -0.1)"><use xlink:href="#DejaVuSans-50"/></g></g></g><g id="ytick_4"><g id="line2d_19"><path d="M 57.6 207.792 L 414.72 207.792" clip-path="url(#p7afac4808e)" style="fill:none;stroke:#fff;stroke-linecap:square;stroke-width:.8"/></g><g id="line2d_20"><g><use style="fill:#fff;stroke:#fff;stroke-width:.8" x="57.6" y="207.792" xlink:href="#m4ae069277f"/></g></g><g id="text_11"><g style="fill:#fff" transform="translate(44.2375 211.591219)scale(0.1 -0.1)"><defs><path id="DejaVuSans-51" d="M 40.578125 39.3125 Q 47.65625 37.796875 51.625 33 Q 55.609375 28.21875 55.609375 21.1875 Q 55.609375 10.40625 48.1875 4.484375 Q 40.765625 -1.421875 27.09375 -1.421875 Q 22.515625 -1.421875 17.65625 -0.515625 Q 12.796875 0.390625 7.625 2.203125 L 7.625 11.71875 Q 11.71875 9.328125 16.59375 8.109375 Q 21.484375 6.890625 26.8125 6.890625 Q 36.078125 6.890625 40.9375 10.546875 Q 45.796875 14.203125 45.796875 21.1875 Q 45.796875 27.640625 41.28125 31.265625 Q 36.765625 34.90625 28.71875 34.90625 L 20.21875 34.90625 L 20.21875 43.015625 L 29.109375 43.015625 Q 36.375 43.015625 40.234375 45.921875 Q 44.09375 48.828125 44.09375 54.296875 Q 44.09375 59.90625 40.109375 62.90625 Q 36.140625 65.921875 28.71875 65.921875 Q 24.65625 65.921875 20.015625 65.03125 Q 15.375 64.15625 9.8125 62.3125 L 9.8125 71.09375 Q 15.4375 72.65625 20.34375 73.4375 Q 25.25 74.21875 29.59375 74.21875 Q 40.828125 74.21875 47.359375 69.109375 Q 53.90625 64.015625 53.90625 55.328125 Q 53.90625 49.265625 50.4375 45.09375 Q 46.96875 40.921875 40.578125 39.3125 z"/></defs><use xlink:href="#DejaVuSans-51"/></g></g></g><g id="ytick_5"><g id="line2d_21"><path d="M 57.6 174.528 L 414.72 174.528" clip-path="url(#p7afac4808e)" style="fill:none;stroke:#fff;stroke-linecap:square;stroke-width:.8"/></g><g id="line2d_22"><g><use style="fill:#fff;stroke:#fff;stroke-width:.8" x="57.6" y="174.528" xlink:href="#m4ae069277f"/></g></g><g id="text_12"><g style="fill:#fff" transform="translate(44.2375 178.327219)scale(0.1 -0.1)"><defs><path id="DejaVuSans-52" d="M 37.796875 64.3125 L 12.890625 25.390625 L 37.796875 25.390625 z M 35.203125 72.90625 L 47.609375 72.90625 L 47.609375 25.390625 L 58.015625 25.390625 L 58.015625 17.1875 L 47.609375 17.1875 L 47.609375 0 L 37.796875 0 L 37.796875 17.1875 L 4.890625 17.1875 L 4.890625 26.703125 z"/></defs><use xlink:href="#DejaVuSans-52"/></g></g></g><g id="ytick_6"><g id="line2d_23"><path d="M 57.6 141.264 L 414.72 141.264" clip-path="url(#p7afac4808e)" style="fill:none;stroke:#fff;stroke-linecap:square;stroke-width:.8"/></g><g id="line2d_24"><g><use style="fill:#fff;stroke:#fff;stroke-width:.8" x="57.6" y="141.264" xlink:href="#m4ae069277f"/></g></g><g id="text_13"><g style="fill:#fff" transform="translate(44.2375 145.063219)scale(0.1 -0.1)"><use xlink:href="#DejaVuSans-53"/></g></g></g><g id="ytick_7"><g id="line2d_25"><path d="M 57.6 108 L 414.72 108" clip-path="url(#p7afac4808e)" style="fill:none;stroke:#fff;stroke-linecap:square;stroke-width:.8"/></g><g id="line2d_26"><g><use style="fill:#fff;stroke:#fff;stroke-width:.8" x="57.6" y="108" xlink:href="#m4ae069277f"/></g></g><g id="text_14"><g style="fill:#fff" transform="translate(44.2375 111.799219)scale(0.1 -0.1)"><defs><path id="DejaVuSans-54" d="M 33.015625 40.375 Q 26.375 40.375 22.484375 35.828125 Q 18.609375 31.296875 18.609375 23.390625 Q 18.609375 15.53125 22.484375 10.953125 Q 26.375 6.390625 33.015625 6.390625 Q 39.65625 6.390625 43.53125 10.953125 Q 47.40625 15.53125 47.40625 23.390625 Q 47.40625 31.296875 43.53125 35.828125 Q 39.65625 40.375 33.015625 40.375 z M 52.59375 71.296875 L 52.59375 62.3125 Q 48.875 64.0625 45.09375 64.984375 Q 41.3125 65.921875 37.59375 65.921875 Q 27.828125 65.921875 22.671875 59.328125 Q 17.53125 52.734375 16.796875 39.40625 Q 19.671875 43.65625 24.015625 45.921875 Q 28.375 48.1875 33.59375 48.1875 Q 44.578125 48.1875 50.953125 41.515625 Q 57.328125 34.859375 57.328125 23.390625 Q 57.328125 12.15625 50.6875 5.359375 Q 44.046875 -1.421875 33.015625 -1.421875 Q 20.359375 -1.421875 13.671875 8.265625 Q 6.984375 17.96875 6.984375 36.375 Q 6.984375 53.65625 15.1875 63.9375 Q 23.390625 74.21875 37.203125 74.21875 Q 40.921875 74.21875 44.703125 73.484375 Q 48.484375 72.75 52.59375 71.296875 z"/></defs><use xlink:href="#DejaVuSans-54"/></g></g></g><g id="ytick_8"><g id="line2d_27"><path d="M 57.6 74.736 L 414.72 74.736" clip-path="url(#p7afac4808e)" style="fill:none;stroke:#fff;stroke-linecap:square;stroke-width:.8"/></g><g id="line2d_28"><g><use style="fill:#fff;stroke:#fff;stroke-width:.8" x="57.6" y="74.736" xlink:href="#m4ae069277f"/></g></g><g id="text_15"><g style="fill:#fff" transform="translate(44.2375 78.535219)scale(0.1 -0.1)"><defs><path id="DejaVuSans-55" d="M 8.203125 72.90625 L 55.078125 72.90625 L 55.078125 68.703125 L 28.609375 0 L 18.3125 0 L 43.21875 64.59375 L 8.203125 64.59375 z"/></defs><use xlink:href="#DejaVuSans-55"/></g></g></g><g id="ytick_9"><g id="line2d_29"><path d="M 57.6 41.472 L 414.72 41.472" clip-path="url(#p7afac4808e)" style="fill:none;stroke:#fff;stroke-linecap:square;stroke-width:.8"/></g><g id="line2d_30"><g><use style="fill:#fff;stroke:#fff;stroke-width:.8" x="57.6" y="41.472" xlink:href="#m4ae069277f"/></g></g><g id="text_16"><g style="fill:#fff" transform="translate(44.2375 45.271219)scale(0.1 -0.1)"><defs><path id="DejaVuSans-56" d="M 31.78125 34.625 Q 24.75 34.625 20.71875 30.859375 Q 16.703125 27.09375 16.703125 20.515625 Q 16.703125 13.921875 20.71875 10.15625 Q 24.75 6.390625 31.78125 6.390625 Q 38.8125 6.390625 42.859375 10.171875 Q 46.921875 13.96875 46.921875 20.515625 Q 46.921875 27.09375 42.890625 30.859375 Q 38.875 34.625 31.78125 34.625 z M 21.921875 38.8125 Q 15.578125 40.375 12.03125 44.71875 Q 8.5 49.078125 8.5 55.328125 Q 8.5 64.0625 14.71875 69.140625 Q 20.953125 74.21875 31.78125 74.21875 Q 42.671875 74.21875 48.875 69.140625 Q 55.078125 64.0625 55.078125 55.328125 Q 55.078125 49.078125 51.53125 44.71875 Q 48 40.375 41.703125 38.8125 Q 48.828125 37.15625 52.796875 32.3125 Q 56.78125 27.484375 56.78125 20.515625 Q 56.78125 9.90625 50.3125 4.234375 Q 43.84375 -1.421875 31.78125 -1.421875 Q 19.734375 -1.421875 13.25 4.234375 Q 6.78125 9.90625 6.78125 20.515625 Q 6.78125 27.484375 10.78125 32.3125 Q 14.796875 37.15625 21.921875 38.8125 z M 18.3125 54.390625 Q 18.3125 48.734375 21.84375 45.5625 Q 25.390625 42.390625 31.78125 42.390625 Q 38.140625 42.390625 41.71875 45.5625 Q 45.3125 48.734375 45.3125 54.390625 Q 45.3125 60.0625 41.71875 63.234375 Q 38.140625 66.40625 31.78125 66.40625 Q 25.390625 66.40625 21.84375 63.234375 Q 18.3125 60.0625 18.3125 54.390625 z"/></defs><use xlink:href="#DejaVuSans-56"/></g></g></g><g id="text_17"><g style="fill:#fff" transform="translate(38.157812 211.567062)rotate(-90)scale(0.1 -0.1)"><defs><path id="DejaVuSans-83" d="M 53.515625 70.515625 L 53.515625 60.890625 Q 47.90625 63.578125 42.921875 64.890625 Q 37.9375 66.21875 33.296875 66.21875 Q 25.25 66.21875 20.875 63.09375 Q 16.5 59.96875 16.5 54.203125 Q 16.5 49.359375 19.40625 46.890625 Q 22.3125 44.4375 30.421875 42.921875 L 36.375 41.703125 Q 47.40625 39.59375 52.65625 34.296875 Q 57.90625 29 57.90625 20.125 Q 57.90625 9.515625 50.796875 4.046875 Q 43.703125 -1.421875 29.984375 -1.421875 Q 24.8125 -1.421875 18.96875 -0.25 Q 13.140625 0.921875 6.890625 3.21875 L 6.890625 13.375 Q 12.890625 10.015625 18.65625 8.296875 Q 24.421875 6.59375 29.984375 6.59375 Q 38.421875 6.59375 43.015625 9.90625 Q 47.609375 13.234375 47.609375 19.390625 Q 47.609375 24.75 44.3125 27.78125 Q 41.015625 30.8125 33.5 32.328125 L 27.484375 33.5 Q 16.453125 35.6875 11.515625 40.375 Q 6.59375 45.0625 6.59375 53.421875 Q 6.59375 63.09375 13.40625 68.65625 Q 20.21875 74.21875 32.171875 74.21875 Q 37.3125 74.21875 42.625 73.28125 Q 47.953125 72.359375 53.515625 70.515625 z"/><path id="DejaVuSans-67" d="M 64.40625 67.28125 L 64.40625 56.890625 Q 59.421875 61.53125 53.78125 63.8125 Q 48.140625 66.109375 41.796875 66.109375 Q 29.296875 66.109375 22.65625 58.46875 Q 16.015625 50.828125 16.015625 36.375 Q 16.015625 21.96875 22.65625 14.328125 Q 29.296875 6.6875 41.796875 6.6875 Q 48.140625 6.6875 53.78125 8.984375 Q 59.421875 11.28125 64.40625 15.921875 L 64.40625 5.609375 Q 59.234375 2.09375 53.4375 0.328125 Q 47.65625 -1.421875 41.21875 -1.421875 Q 24.65625 -1.421875 15.125 8.703125 Q 5.609375 18.84375 5.609375 36.375 Q 5.609375 53.953125 15.125 64.078125 Q 24.65625 74.21875 41.21875 74.21875 Q 47.75 74.21875 53.53125 72.484375 Q 59.328125 70.75 64.40625 67.28125 z"/><path id="DejaVuSans-77" d="M 9.8125 72.90625 L 24.515625 72.90625 L 43.109375 23.296875 L 61.8125 72.90625 L 76.515625 72.90625 L 76.515625 0 L 66.890625 0 L 66.890625 64.015625 L 48.09375 14.015625 L 38.1875 14.015625 L 19.390625 64.015625 L 19.390625 0 L 9.8125 0 z"/><path id="DejaVuSans-80" d="M 19.671875 64.796875 L 19.671875 37.40625 L 32.078125 37.40625 Q 38.96875 37.40625 42.71875 40.96875 Q 46.484375 44.53125 46.484375 51.125 Q 46.484375 57.671875 42.71875 61.234375 Q 38.96875 64.796875 32.078125 64.796875 z M 9.8125 72.90625 L 32.078125 72.90625 Q 44.34375 72.90625 50.609375 67.359375 Q 56.890625 61.8125 56.890625 51.125 Q 56.890625 40.328125 50.609375 34.8125 Q 44.34375 29.296875 32.078125 29.296875 L 19.671875 29.296875 L 19.671875 0 L 9.8125 0 z"/><path id="DejaVuSans-105" d="M 9.421875 54.6875 L 18.40625 54.6875 L 18.40625 0 L 9.421875 0 z M 9.421875 75.984375 L 18.40625 75.984375 L 18.40625 64.59375 L 9.421875 64.59375 z"/><path id="DejaVuSans-99" d="M 48.78125 52.59375 L 48.78125 44.1875 Q 44.96875 46.296875 41.140625 47.34375 Q 37.3125 48.390625 33.40625 48.390625 Q 24.65625 48.390625 19.8125 42.84375 Q 14.984375 37.3125 14.984375 27.296875 Q 14.984375 17.28125 19.8125 11.734375 Q 24.65625 6.203125 33.40625 6.203125 Q 37.3125 6.203125 41.140625 7.25 Q 44.96875 8.296875 48.78125 10.40625 L 48.78125 2.09375 Q 45.015625 0.34375 40.984375 -0.53125 Q 36.96875 -1.421875 32.421875 -1.421875 Q 20.0625 -1.421875 12.78125 6.34375 Q 5.515625 14.109375 5.515625 27.296875 Q 5.515625 40.671875 12.859375 48.328125 Q 20.21875 56 33.015625 56 Q 37.15625 56 41.109375 55.140625 Q 45.0625 54.296875 48.78125 52.59375 z"/><path id="DejaVuSans-85" d="M 8.6875 72.90625 L 18.609375 72.90625 L 18.609375 28.609375 Q 18.609375 16.890625 22.84375 11.734375 Q 27.09375 6.59375 36.625 6.59375 Q 46.09375 6.59375 50.34375 11.734375 Q 54.59375 16.890625 54.59375 28.609375 L 54.59375 72.90625 L 64.5 72.90625 L 64.5 27.390625 Q 64.5 13.140625 57.4375 5.859375 Q 50.390625 -1.421875 36.625 -1.421875 Q 22.796875 -1.421875 15.734375 5.859375 Q 8.6875 13.140625 8.6875 27.390625 z"/></defs><use xlink:href="#DejaVuSans-83"/><use x="63.477" xlink:href="#DejaVuSans-67"/><use x="133.301" xlink:href="#DejaVuSans-77"/><use x="219.58" xlink:href="#DejaVuSans-32"/><use x="251.367" xlink:href="#DejaVuSans-80"/><use x="309.92" xlink:href="#DejaVuSans-114"/><use x="351.033" xlink:href="#DejaVuSans-105"/><use x="378.816" xlink:href="#DejaVuSans-99"/><use x="433.797" xlink:href="#DejaVuSans-101"/><use x="495.32" xlink:href="#DejaVuSans-32"/><use x="527.107" xlink:href="#DejaVuSans-85"/><use x="600.301" xlink:href="#DejaVuSans-83"/><use x="663.777" xlink:href="#DejaVuSans-68"/></g></g></g><g id="line2d_31"><path d="M 74.956193 -1 L 75.100909 36.648316 L 76.369091 86.023698 L 77.637273 102.062883 L 78.905455 110.14929 L 80.173636 110.761836 L 81.441818 102.770942 L 82.71 116.350977 L 83.978182 166.787326 L 85.246364 152.846311 L 86.514545 156.270468 L 87.782727 157.885686 L 89.050909 157.658784 L 90.319091 158.540383 L 91.587273 168.391783 L 92.855455 186.747072 L 94.123636 194.070712 L 95.391818 189.847915 L 96.66 191.204842 L 97.928182 190.333557 L 99.196364 196.421344 L 100.464545 212.537658 L 101.732727 226.215897 L 103.000909 231.539572 L 104.269091 230.605059 L 105.537273 230.901018 L 106.805455 228.147254 L 108.073636 226.239664 L 110.61 239.922836 L 111.878182 238.981596 L 113.146364 240.661388 L 114.414545 240.925957 L 115.682727 240.884254 L 116.950909 237.178488 L 118.219091 240.647038 L 119.487273 244.790016 L 120.755455 247.357685 L 122.023636 247.54378 L 123.291818 247.987719 L 124.56 249.754056 L 125.828182 248.751831 L 127.096364 249.933425 L 128.364545 254.201065 L 129.632727 259.155239 L 130.900909 260.80409 L 132.169091 260.399612 L 133.437273 255.835566 L 134.705455 269.735326 L 135.973636 282.062916 L 137.241818 288.44711 L 138.51 288.684775 L 139.778182 287.976715 L 141.046364 286.655213 L 142.314545 288.056534 L 143.582727 289.887893 L 144.850909 289.714802 L 146.119091 291.866782 L 147.387273 291.51208 L 148.655455 289.8574 L 149.923636 287.017539 L 151.191818 288.384331 L 152.46 287.738154 L 154.996364 290.134974 L 156.264545 287.426052 L 157.532727 286.594676 L 158.800909 285.609491 L 160.069091 286.977629 L 161.337273 285.139096 L 162.605455 286.22966 L 163.873636 286.32069 L 165.141818 286.91754 L 166.41 286.279883 L 167.678182 284.942238 L 168.946364 284.066917 L 170.214545 283.413565 L 171.482727 284.987529 L 172.750909 286.162397 L 174.019091 286.088407 L 175.287273 286.215759 L 176.555455 286.217553 L 177.823636 286.474499 L 179.091818 286.435486 L 180.36 287.162828 L 181.628182 288.452043 L 182.896364 289.417497 L 184.164545 289.63005 L 185.432727 289.715698 L 186.700909 296.10931 L 187.969091 300.970213 L 190.505455 302.722649 L 191.773636 302.919955 L 193.041818 302.485433 L 194.31 300.924474 L 195.578182 299.90207 L 196.846364 299.675616 L 198.114545 300.33973 L 199.382727 301.432985 L 200.650909 302.36705 L 201.919091 302.506509 L 203.187273 302.435658 L 204.455455 302.56884 L 205.723636 302.828925 L 206.991818 302.841033 L 209.528182 303.082284 L 210.796364 303.08632 L 214.600909 302.837894 L 215.869091 302.479604 L 217.137273 303.271518 L 218.405455 303.566132 L 219.673636 303.568823 L 223.478182 303.04641 L 224.746364 303.10336 L 226.014545 303.321293 L 227.282727 303.30246 L 229.819091 303.134301 L 231.087273 303.110983 L 232.355455 302.948206 L 233.623636 302.951345 L 234.891818 302.650453 L 236.16 302.968385 L 239.964545 303.162552 L 242.500909 302.740586 L 243.769091 302.82758 L 247.573636 302.488124 L 248.841818 301.906968 L 250.11 297.520048 L 251.378182 296.084647 L 252.646364 297.795828 L 253.914545 298.168467 L 255.182727 297.917351 L 256.450909 297.447404 L 257.719091 296.705264 L 260.255455 294.66225 L 261.523636 293.93446 L 264.06 291.804003 L 266.596364 288.634551 L 267.864545 292.824165 L 269.132727 294.140286 L 270.400909 293.121918 L 272.937273 289.100014 L 276.741818 283.195183 L 279.278182 280.488952 L 280.546364 277.269276 L 281.814545 273.557233 L 283.082727 271.716457 L 284.350909 272.280573 L 285.619091 274.220899 L 286.887273 277.007846 L 288.155455 279.282246 L 289.423636 279.606456 L 290.691818 277.571962 L 291.96 275.180075 L 293.228182 274.024041 L 294.496364 273.431675 L 295.764545 276.459425 L 297.032727 278.082267 L 298.300909 274.313274 L 299.569091 272.169813 L 302.105455 270.41065 L 303.373636 270.113346 L 304.641818 269.44968 L 305.91 268.349699 L 307.178182 265.156929 L 308.446364 261.409012 L 309.714545 256.870525 L 310.982727 255.725702 L 312.250909 255.932425 L 313.519091 254.479535 L 314.787273 251.05224 L 316.055455 242.694088 L 317.323636 237.587898 L 318.591818 241.887824 L 319.86 239.792793 L 321.128182 239.71118 L 322.396364 240.013417 L 323.664545 242.123695 L 324.932727 242.008898 L 327.469091 241.092322 L 328.737273 240.16319 L 330.005455 237.786101 L 331.273636 238.16188 L 332.541818 239.363204 L 333.81 238.155153 L 335.078182 239.095944 L 336.346364 236.600023 L 337.614545 237.543505 L 338.882727 238.687879 L 340.150909 239.182041 L 342.687273 239.874406 L 343.955455 239.29056 L 345.223636 238.256048 L 346.491818 239.235852 L 347.76 235.724702 L 349.028182 233.447611 L 350.296364 232.553905 L 351.564545 232.527448 L 352.832727 231.444507 L 354.100909 229.277279 L 355.369091 224.410996 L 356.637273 235.074489 L 357.905455 244.607508 L 359.173636 249.055862 L 360.441818 251.804245 L 361.71 250.935202 L 362.978182 247.958123 L 364.246364 245.442023 L 365.514545 246.366222 L 366.782727 251.710076 L 368.050909 259.407253 L 370.587273 261.236369 L 371.855455 260.704091 L 373.123636 258.727444 L 374.391818 257.628808 L 375.66 257.817594 L 376.928182 260.291094 L 378.196364 261.138613 L 379.464545 257.189354 L 380.732727 254.432002 L 382.000909 254.413169 L 383.269091 250.415031 L 384.537273 247.487279 L 385.805455 253.376415 L 387.073636 254.550834 L 388.341818 254.290301 L 389.61 251.90245 L 390.878182 253.52574 L 392.146364 253.006915 L 393.414545 249.0025 L 394.682727 249.285006 L 395.950909 250.154498 L 397.219091 251.33385 L 398.487273 253.607353 L 398.487273 253.607353" clip-path="url(#p7afac4808e)" style="fill:none;stroke:#8dd3c7;stroke-linecap:square;stroke-opacity:.8;stroke-width:1.5"/></g><g id="line2d_32"><path d="M 73.832727 81.257412 L 75.100909 156.511271 L 76.369091 150.068332 L 77.637273 138.080198 L 78.905455 117.024956 L 80.173636 116.697159 L 81.441818 106.802263 L 82.71 154.046739 L 83.978182 209.683447 L 85.246364 210.178506 L 86.514545 207.718459 L 87.782727 195.786378 L 89.050909 201.211396 L 90.319091 192.12097 L 91.587273 202.350838 L 92.855455 231.987098 L 94.123636 242.579292 L 96.66 230.399682 L 97.928182 226.341904 L 99.196364 221.893102 L 100.464545 221.24558 L 101.732727 244.952794 L 103.000909 255.837359 L 104.269091 256.423896 L 105.537273 248.197581 L 106.805455 247.529879 L 108.073636 244.528137 L 109.341818 243.772993 L 110.61 249.092633 L 111.878182 256.303719 L 113.146364 258.024317 L 114.414545 254.28761 L 115.682727 252.346388 L 116.950909 249.578723 L 118.219091 250.001137 L 119.487273 252.587191 L 120.755455 256.232868 L 122.023636 257.124781 L 123.291818 252.101549 L 124.56 258.777667 L 125.828182 260.015763 L 127.096364 260.346699 L 128.364545 261.882995 L 129.632727 264.168606 L 130.900909 264.023765 L 132.169091 263.469066 L 134.705455 264.303581 L 135.973636 262.491056 L 137.241818 262.992841 L 138.51 265.186974 L 139.778182 266.002655 L 141.046364 264.703574 L 142.314545 264.226901 L 143.582727 264.191475 L 144.850909 263.602696 L 148.655455 265.223296 L 151.191818 265.217466 L 152.46 264.77308 L 153.728182 261.643986 L 154.996364 262.90226 L 156.264545 264.483847 L 157.532727 264.900432 L 158.800909 264.929131 L 160.069091 262.09465 L 161.337273 260.978975 L 162.605455 270.739344 L 163.873636 274.111932 L 165.141818 276.945964 L 166.41 278.115899 L 170.214545 279.727082 L 171.482727 279.617666 L 172.750909 281.517185 L 174.019091 286.224727 L 175.287273 288.497334 L 176.555455 289.36548 L 177.823636 289.398664 L 179.091818 288.650694 L 180.36 288.798226 L 181.628182 290.173538 L 182.896364 291.858711 L 184.164545 292.766318 L 185.432727 292.819681 L 186.700909 293.04165 L 187.969091 293.042547 L 189.237273 290.844379 L 190.505455 289.285213 L 191.773636 290.892808 L 193.041818 291.875751 L 194.31 292.537623 L 195.578182 291.616114 L 196.846364 290.364566 L 198.114545 288.360565 L 199.382727 289.378933 L 200.650909 290.816576 L 201.919091 290.286541 L 203.187273 287.380313 L 204.455455 286.608577 L 205.723636 288.789705 L 206.991818 290.632723 L 208.26 291.855572 L 209.528182 293.420567 L 210.796364 294.358219 L 212.064545 294.849691 L 213.332727 295.186456 L 214.600909 290.229143 L 215.869091 290.222416 L 217.137273 291.333608 L 218.405455 293.221916 L 219.673636 293.82056 L 220.941818 293.939841 L 222.21 294.398577 L 223.478182 295.368964 L 224.746364 297.37162 L 227.282727 299.028094 L 228.550909 299.477413 L 229.819091 299.662612 L 231.087273 299.144235 L 232.355455 298.786842 L 233.623636 298.265327 L 234.891818 298.168467 L 236.16 298.239318 L 237.428182 297.869818 L 238.696364 295.63174 L 239.964545 299.676065 L 241.232727 300.241974 L 242.500909 299.258135 L 243.769091 299.009708 L 245.037273 298.946929 L 247.573636 299.194907 L 248.841818 299.102084 L 250.11 299.442885 L 251.378182 300.148702 L 255.182727 300.457666 L 256.450909 300.381434 L 257.719091 300.133904 L 261.523636 298.612854 L 262.791818 298.84155 L 265.328182 299.756332 L 266.596364 299.977853 L 267.864545 299.97023 L 269.132727 299.270691 L 270.400909 298.199857 L 271.669091 296.709748 L 272.937273 294.138941 L 274.205455 294.483778 L 276.741818 296.063571 L 278.01 294.692294 L 279.278182 293.621461 L 281.814545 294.351044 L 283.082727 295.859539 L 284.350909 296.207963 L 288.155455 294.879286 L 290.691818 295.532638 L 293.228182 295.218294 L 294.496364 295.869852 L 297.032727 294.82144 L 298.300909 298.187301 L 299.569091 297.67879 L 300.837273 295.758644 L 303.373636 294.990944 L 304.641818 294.129524 L 305.91 292.721476 L 307.178182 292.002655 L 308.446364 290.908055 L 309.714545 289.518841 L 312.250909 289.071763 L 313.519091 287.452509 L 314.787273 284.869145 L 316.055455 285.901415 L 317.323636 286.694674 L 318.591818 285.726081 L 319.86 285.792896 L 321.128182 287.8673 L 322.396364 289.629601 L 323.664545 290.347078 L 324.932727 290.923749 L 326.200909 291.039442 L 327.469091 291.030026 L 328.737273 290.690121 L 330.005455 291.00895 L 331.273636 290.986529 L 332.541818 291.787412 L 333.81 292.892774 L 335.078182 292.756005 L 336.346364 293.648814 L 337.614545 293.626842 L 340.150909 293.171693 L 341.419091 294.132214 L 342.687273 295.312014 L 343.955455 295.635776 L 345.223636 295.605731 L 346.491818 295.282419 L 347.76 294.650591 L 349.028182 294.363152 L 351.564545 295.391385 L 354.100909 293.942083 L 355.369091 293.491866 L 359.173636 295.353718 L 360.441818 296.223658 L 361.71 296.084198 L 362.978182 295.794517 L 364.246364 295.664475 L 365.514545 295.666717 L 366.782727 295.017401 L 368.050909 295.466272 L 369.319091 296.271191 L 371.855455 296.349216 L 373.123636 295.979268 L 375.66 295.986442 L 376.928182 296.261774 L 378.196364 297.28059 L 379.464545 297.816007 L 382.000909 297.91466 L 383.269091 298.173848 L 384.537273 297.355029 L 385.805455 297.679238 L 387.073636 298.660836 L 388.341818 298.811057 L 389.61 298.655903 L 390.878182 298.035734 L 392.146364 298.209274 L 393.414545 297.518703 L 394.682727 297.52812 L 395.950909 298.566218 L 397.219091 299.042892 L 398.487273 298.590882 L 398.487273 298.590882" clip-path="url(#p7afac4808e)" style="fill:none;stroke:#feffb3;stroke-linecap:square;stroke-opacity:.8;stroke-width:1.5"/></g><g id="line2d_33"><path d="M 73.832727 163.871233 L 75.100909 195.515082 L 76.369091 175.637398 L 77.637273 173.920387 L 78.905455 171.972887 L 80.173636 163.779755 L 81.441818 157.738604 L 82.71 207.084837 L 83.978182 241.168554 L 85.246364 251.880925 L 86.514545 247.151859 L 87.782727 244.489125 L 89.050909 241.422361 L 90.319091 240.89681 L 91.587273 247.820009 L 92.855455 264.244838 L 94.123636 265.060519 L 95.391818 262.538141 L 96.66 262.021109 L 97.928182 261.644434 L 99.196364 259.395145 L 100.464545 258.733273 L 101.732727 266.544798 L 103.000909 266.695019 L 104.269091 262.780737 L 105.537273 263.703143 L 106.805455 263.406287 L 108.073636 259.466445 L 109.341818 259.498731 L 110.61 262.356978 L 111.878182 262.289714 L 113.146364 261.589726 L 114.414545 262.326485 L 115.682727 262.860556 L 116.950909 265.013883 L 118.219091 263.834979 L 119.487273 264.227349 L 120.755455 264.824648 L 122.023636 265.291008 L 123.291818 266.381572 L 124.56 266.838066 L 125.828182 266.739413 L 127.096364 266.855555 L 128.364545 267.161828 L 129.632727 266.361393 L 130.900909 266.649729 L 132.169091 269.610216 L 133.437273 270.08958 L 134.705455 267.709352 L 135.973636 267.939841 L 138.51 266.93089 L 139.778182 266.663181 L 141.046364 267.628187 L 142.314545 266.045255 L 143.582727 265.321501 L 146.119091 265.218812 L 147.387273 263.386108 L 148.655455 263.560993 L 149.923636 265.22509 L 151.191818 265.622841 L 152.46 264.858728 L 153.728182 265.155136 L 154.996364 267.631775 L 157.532727 270.078818 L 158.800909 272.127213 L 160.069091 273.049618 L 162.605455 273.239301 L 163.873636 274.505199 L 165.141818 277.289007 L 166.41 282.075023 L 167.678182 284.474982 L 168.946364 283.474999 L 170.214545 283.21043 L 171.482727 281.703729 L 172.750909 280.836928 L 174.019091 282.864247 L 175.287273 287.041305 L 176.555455 289.512115 L 177.823636 289.623772 L 179.091818 289.334539 L 180.36 289.620633 L 181.628182 287.863264 L 182.896364 287.703177 L 185.432727 291.190112 L 186.700909 290.935408 L 189.237273 287.305875 L 190.505455 287.273588 L 191.773636 288.576705 L 193.041818 287.963262 L 194.31 288.147564 L 195.578182 287.310359 L 196.846364 285.865541 L 199.382727 284.538658 L 200.650909 283.175453 L 201.919091 283.831943 L 203.187273 286.472705 L 204.455455 286.95476 L 205.723636 287.22202 L 206.991818 286.770009 L 208.26 286.790637 L 209.528182 286.333694 L 210.796364 287.065072 L 212.064545 289.325571 L 213.332727 289.93408 L 214.600909 289.837221 L 215.869091 290.043944 L 217.137273 289.928699 L 218.405455 288.915264 L 219.673636 289.703591 L 220.941818 290.899983 L 223.478182 291.275761 L 224.746364 291.099083 L 226.014545 291.380692 L 227.282727 290.69909 L 228.550909 290.86949 L 231.087273 293.105326 L 232.355455 292.120141 L 233.623636 292.244803 L 234.891818 292.553318 L 236.16 292.656903 L 237.428182 293.310255 L 238.696364 295.231298 L 241.232727 295.221433 L 242.500909 299.782789 L 243.769091 301.169312 L 245.037273 299.586829 L 246.305455 300.320897 L 247.573636 301.62491 L 248.841818 301.896206 L 250.11 301.648676 L 252.646364 302.943721 L 256.450909 303.879131 L 257.719091 303.745501 L 258.987273 303.377795 L 261.523636 303.559406 L 262.791818 303.254478 L 264.06 303.380934 L 265.328182 303.886754 L 266.596364 303.584069 L 267.864545 303.451784 L 269.132727 303.158964 L 270.400909 303.056275 L 272.937273 302.644623 L 275.473636 302.566149 L 276.741818 302.076023 L 278.01 302.092167 L 281.814545 302.834306 L 283.082727 303.289455 L 284.350909 303.386315 L 285.619091 303.242371 L 286.887273 303.429363 L 288.155455 303.395731 L 289.423636 303.087665 L 291.96 303.531155 L 293.228182 303.575549 L 294.496364 303.161655 L 295.764545 302.49216 L 297.032727 300.15498 L 298.300909 299.22809 L 299.569091 299.19401 L 300.837273 300.84017 L 302.105455 300.920886 L 303.373636 300.224934 L 304.641818 299.383693 L 305.91 299.115536 L 307.178182 299.404769 L 308.446364 299.283246 L 309.714545 299.409702 L 310.982727 299.773372 L 312.250909 299.894447 L 313.519091 300.194441 L 314.787273 300.170227 L 316.055455 300.687258 L 317.323636 301.553611 L 318.591818 302.123108 L 319.86 302.376915 L 321.128182 302.143735 L 322.396364 302.052705 L 323.664545 302.131179 L 326.200909 302.848207 L 327.469091 303.462995 L 328.737273 303.645055 L 333.81 303.798864 L 335.078182 303.813661 L 336.346364 304.220381 L 337.614545 304.380916 L 343.955455 304.510062 L 345.223636 304.840998 L 346.491818 305.007811 L 349.028182 304.879114 L 351.564545 304.88584 L 352.832727 304.954897 L 355.369091 305.296147 L 359.173636 305.308255 L 361.71 305.341438 L 362.978182 305.635603 L 364.246364 305.705109 L 365.514545 305.652643 L 366.782727 305.715871 L 370.587273 305.590761 L 373.123636 305.771475 L 383.269091 305.759816 L 387.073636 305.875061 L 389.61 305.932907 L 390.878182 306.12259 L 393.414545 306.066537 L 395.950909 306.322138 L 397.219091 306.19658 L 398.487273 306.30465 L 398.487273 306.30465" clip-path="url(#p7afac4808e)" style="fill:none;stroke:#bfbbd9;stroke-linecap:square;stroke-opacity:.8;stroke-width:1.5"/></g><g id="line2d_34"><path d="M 73.832727 271.150548 L 75.100909 282.057983 L 76.369091 283.265586 L 77.637273 286.853864 L 78.905455 292.432244 L 81.441818 288.596884 L 83.978182 298.607025 L 85.246364 301.228953 L 86.514545 302.454044 L 87.782727 302.942376 L 89.050909 302.186335 L 90.319091 300.824475 L 91.587273 301.00788 L 92.855455 302.249563 L 95.391818 302.695744 L 96.66 303.924422 L 97.928182 303.974197 L 99.196364 303.689448 L 100.464545 303.888548 L 101.732727 304.329796 L 103.000909 304.633827 L 104.269091 304.691673 L 105.537273 305.062519 L 106.805455 305.156239 L 108.073636 304.87463 L 109.341818 302.888565 L 110.61 303.971506 L 111.878182 304.576429 L 113.146364 305.048169 L 114.414545 305.307358 L 118.219091 305.197046 L 120.755455 305.250408 L 123.291818 305.714974 L 125.828182 305.513632 L 127.096364 305.242336 L 128.364545 304.685395 L 129.632727 304.282263 L 130.900909 304.505129 L 132.169091 304.893463 L 133.437273 304.948619 L 134.705455 304.814989 L 135.973636 304.856244 L 137.241818 304.756246 L 146.119091 304.92575 L 149.923636 305.516323 L 163.873636 306.079093 L 166.41 306.072815 L 168.946364 306.239629 L 175.287273 306.238732 L 177.823636 306.358909 L 179.091818 306.263395 L 180.36 306.39837 L 185.432727 306.428863 L 186.700909 306.500162 L 187.969091 306.382227 L 191.773636 306.516305 L 193.041818 306.441419 L 194.31 306.613613 L 220.941818 306.793879 L 222.21 306.923473 L 223.478182 306.832443 L 224.746364 306.973697 L 231.087273 306.827062 L 232.355455 306.944998 L 233.623636 306.943204 L 234.891818 306.793879 L 236.16 306.903294 L 238.696364 306.84186 L 239.964545 306.855761 L 241.232727 306.998808 L 242.500909 306.88177 L 245.037273 306.903743 L 246.305455 306.783117 L 248.841818 306.895671 L 250.11 306.768319 L 252.646364 306.060708 L 253.914545 306.101514 L 255.182727 306.35577 L 256.450909 306.204652 L 257.719091 306.309583 L 258.987273 306.242768 L 260.255455 306.336039 L 264.06 306.208687 L 267.864545 306.365635 L 269.132727 306.288058 L 270.400909 306.557112 L 271.669091 306.45532 L 272.937273 306.478638 L 274.205455 306.669666 L 275.473636 306.56608 L 279.278182 306.643209 L 280.546364 306.415859 L 281.814545 306.388057 L 283.082727 306.482225 L 284.350909 306.368774 L 289.423636 306.462495 L 290.691818 306.336039 L 295.764545 306.4042 L 299.569091 306.223934 L 300.837273 306.504198 L 304.641818 306.311825 L 305.91 306.168778 L 314.787273 306.09703 L 317.323636 305.999274 L 318.591818 306.152186 L 321.128182 306.076851 L 322.396364 306.609129 L 323.664545 306.510028 L 324.932727 306.25622 L 328.737273 306.146805 L 330.005455 306.249942 L 331.273636 306.191199 L 332.541818 306.337833 L 335.078182 306.245458 L 336.346364 306.37012 L 340.150909 306.284471 L 343.955455 306.437831 L 345.223636 306.340972 L 351.564545 306.455768 L 352.832727 306.418549 L 355.369091 306.519444 L 370.587273 305.933804 L 371.855455 305.99479 L 373.123636 305.818111 L 375.66 305.938737 L 380.732727 305.809143 L 385.805455 305.851294 L 387.073636 305.880442 L 388.341818 305.704212 L 389.61 305.836497 L 390.878182 305.74457 L 394.682727 305.876855 L 395.950909 305.726185 L 398.487273 305.792103 L 398.487273 305.792103" clip-path="url(#p7afac4808e)" style="fill:none;stroke:#fa8174;stroke-linecap:square;stroke-opacity:.8;stroke-width:1.5"/></g><g id="line2d_35"><path d="M 73.832727 162.30265 L 75.100909 219.364894 L 76.369091 199.454924 L 77.637273 190.937134 L 78.905455 184.130076 L 80.173636 170.761249 L 81.441818 168.19941 L 82.71 229.977267 L 83.978182 263.905382 L 85.246364 260.730548 L 86.514545 256.779944 L 87.782727 250.064813 L 90.319091 242.737585 L 91.587273 254.079094 L 92.855455 273.646021 L 94.123636 276.192165 L 95.391818 274.822233 L 96.66 272.67115 L 99.196364 268.896775 L 101.732727 284.236421 L 104.269091 289.917937 L 105.537273 289.955605 L 106.805455 289.238128 L 108.073636 289.151134 L 109.341818 288.311238 L 110.61 288.25384 L 113.146364 289.136785 L 114.414545 289.847983 L 115.682727 289.731393 L 116.950909 286.913953 L 118.219091 284.74269 L 119.487273 286.816197 L 120.755455 288.371327 L 122.023636 286.78122 L 123.291818 286.740862 L 124.56 287.64264 L 125.828182 287.307668 L 127.096364 286.834582 L 128.364545 287.158343 L 129.632727 287.725598 L 130.900909 287.378967 L 132.169091 288.361013 L 133.437273 290.370396 L 134.705455 290.37757 L 135.973636 290.071746 L 137.241818 290.282953 L 139.778182 291.205359 L 141.046364 292.453319 L 142.314545 294.65373 L 143.582727 295.127264 L 144.850909 295.332642 L 146.119091 295.874785 L 147.387273 293.821457 L 148.655455 292.920576 L 151.191818 295.655506 L 153.728182 296.286437 L 154.996364 295.99003 L 156.264545 294.439384 L 157.532727 294.094098 L 158.800909 296.020522 L 160.069091 296.880149 L 161.337273 297.329468 L 162.605455 297.227228 L 163.873636 297.501663 L 165.141818 297.28642 L 166.41 297.535743 L 167.678182 298.339765 L 168.946364 299.419118 L 170.214545 300.125833 L 171.482727 300.331659 L 172.750909 300.203858 L 174.019091 299.599384 L 175.287273 300.554076 L 176.555455 302.232971 L 177.823636 302.888565 L 179.091818 303.041029 L 180.36 303.061208 L 181.628182 302.740586 L 184.164545 302.818163 L 185.432727 303.721286 L 186.700909 304.142355 L 187.969091 303.033406 L 189.237273 302.562114 L 190.505455 302.473774 L 191.773636 301.946878 L 193.041818 300.939272 L 194.31 301.954052 L 195.578182 302.373328 L 196.846364 301.924008 L 198.114545 301.771993 L 199.382727 302.174676 L 200.650909 302.28454 L 201.919091 302.714129 L 203.187273 303.371068 L 205.723636 303.051343 L 209.528182 303.980923 L 210.796364 304.150427 L 212.064545 304.443695 L 214.600909 304.188094 L 218.405455 305.199288 L 219.673636 305.528879 L 220.941818 305.616769 L 223.478182 305.496592 L 224.746364 305.658921 L 232.355455 305.790757 L 233.623636 305.671029 L 237.428182 305.889859 L 238.696364 306.02304 L 239.964545 306.027973 L 242.500909 305.733359 L 243.769091 305.839635 L 245.037273 305.753538 L 257.719091 306.248597 L 261.523636 306.282229 L 265.328182 306.409132 L 269.132727 306.427518 L 275.473636 306.536933 L 276.741818 306.679531 L 279.278182 306.612716 L 280.546364 306.73379 L 281.814545 306.594779 L 283.082727 306.752176 L 284.350909 306.652178 L 285.619091 306.86742 L 286.887273 306.638276 L 291.96 306.826166 L 294.496364 306.095685 L 295.764545 306.034251 L 300.837273 306.290749 L 302.105455 306.33021 L 303.373636 306.204203 L 304.641818 306.333797 L 314.787273 306.373707 L 317.323636 306.336936 L 318.591818 306.422585 L 321.128182 306.464737 L 322.396364 306.484019 L 323.664545 306.373259 L 324.932727 306.552628 L 337.614545 306.441419 L 338.882727 306.383572 L 340.150909 306.50644 L 341.419091 306.369223 L 345.223636 306.558009 L 346.491818 306.395231 L 347.76 306.517651 L 349.028182 306.369671 L 351.564545 306.461598 L 355.369091 306.484467 L 356.637273 306.558009 L 359.173636 306.420343 L 360.441818 306.460253 L 361.71 306.37864 L 365.514545 306.5746 L 366.782727 306.297027 L 369.319091 306.432899 L 370.587273 306.323484 L 371.855455 306.478189 L 373.123636 306.487606 L 374.391818 306.620788 L 378.196364 306.565632 L 379.464545 306.397473 L 382.000909 306.526171 L 384.537273 306.430208 L 385.805455 306.599712 L 387.073636 306.452629 L 392.146364 306.317206 L 394.682727 306.522583 L 398.487273 306.575497 L 398.487273 306.575497" clip-path="url(#p7afac4808e)" style="fill:none;stroke:#81b1d2;stroke-linecap:square;stroke-opacity:.8;stroke-width:1.5"/></g><g id="line2d_36"><path d="M 73.832727 162.130905 L 75.100909 233.37407 L 76.369091 229.302391 L 77.637273 229.791172 L 78.905455 219.514219 L 80.173636 218.383745 L 81.441818 213.096393 L 82.71 243.238474 L 83.978182 276.688569 L 85.246364 279.870128 L 86.514545 277.118158 L 87.782727 272.489538 L 89.050909 271.637983 L 90.319091 271.644261 L 91.587273 274.173366 L 92.855455 287.270898 L 94.123636 292.429553 L 95.391818 293.588277 L 96.66 292.348388 L 97.928182 290.070401 L 99.196364 289.646193 L 100.464545 286.977629 L 101.732727 290.251564 L 103.000909 295.520083 L 104.269091 296.76042 L 106.805455 296.664906 L 108.073636 296.568047 L 109.341818 296.335315 L 110.61 297.594935 L 111.878182 299.650953 L 113.146364 300.758557 L 114.414545 300.445558 L 115.682727 299.585035 L 116.950909 298.570703 L 118.219091 296.482846 L 119.487273 296.531276 L 120.755455 298.970247 L 122.023636 299.488176 L 124.56 300.122694 L 125.828182 300.142424 L 128.364545 299.825838 L 129.632727 300.041529 L 130.900909 302.307858 L 132.169091 302.790809 L 134.705455 301.110121 L 135.973636 300.91685 L 137.241818 300.315964 L 138.51 300.50744 L 139.778182 301.338368 L 142.314545 302.085889 L 143.582727 302.666148 L 144.850909 302.909641 L 147.387273 302.77063 L 148.655455 303.268379 L 151.191818 303.681825 L 152.46 303.783617 L 156.264545 303.678686 L 157.532727 303.872405 L 158.800909 303.906485 L 160.069091 303.539227 L 161.337273 303.315464 L 162.605455 304.176435 L 163.873636 304.848173 L 165.141818 304.897499 L 167.678182 305.342783 L 171.482727 305.595245 L 174.019091 305.703763 L 175.287273 305.80152 L 179.091818 305.776408 L 181.628182 305.855779 L 184.164545 305.914971 L 185.432727 306.068331 L 191.773636 306.175504 L 193.041818 306.305995 L 195.578182 306.249942 L 203.187273 306.308237 L 204.455455 306.197028 L 208.26 306.391644 L 209.528182 306.160706 L 210.796364 306.095236 L 212.064545 306.159361 L 213.332727 306.417652 L 215.869091 306.408236 L 217.137273 306.288507 L 218.405455 306.453975 L 224.746364 306.274606 L 226.014545 306.4468 L 234.891818 306.539623 L 236.16 306.941859 L 239.964545 306.872353 L 241.232727 306.696123 L 242.500909 306.846793 L 245.037273 306.803296 L 246.305455 306.873698 L 247.573636 306.749485 L 250.11 306.801502 L 251.378182 306.951275 L 252.646364 306.693881 L 253.914545 306.698813 L 255.182727 306.842757 L 258.987273 306.69119 L 260.255455 306.908227 L 264.06 306.692536 L 265.328182 306.661146 L 266.596364 306.801951 L 267.864545 306.732445 L 270.400909 306.854865 L 271.669091 306.71406 L 272.937273 306.759799 L 274.205455 306.943204 L 275.473636 306.993427 L 276.741818 306.910917 L 278.01 307.020781 L 279.278182 306.910469 L 280.546364 307.071004 L 288.155455 306.775494 L 289.423636 306.846345 L 290.691818 307.071901 L 293.228182 307.058 L 300.837273 306.946343 L 302.105455 307.139165 L 304.641818 307.166518 L 308.446364 307.11495 L 310.982727 307.208222 L 312.250909 307.237818 L 313.519091 307.144546 L 314.787273 307.254858 L 317.323636 307.135129 L 318.591818 307.283557 L 323.664545 307.206428 L 347.76 307.266965 L 350.296364 307.201944 L 352.832727 307.292974 L 359.173636 307.224813 L 360.441818 307.332883 L 366.782727 307.320776 L 371.855455 307.383555 L 398.487273 307.341852 L 398.487273 307.341852" clip-path="url(#p7afac4808e)" style="fill:none;stroke:#fdb462;stroke-linecap:square;stroke-opacity:.8;stroke-width:1.5"/></g><g id="line2d_37"><path d="M 73.832727 152.986219 L 75.100909 226.832479 L 76.369091 224.279159 L 77.637273 241.456442 L 78.905455 243.246994 L 80.173636 234.686155 L 81.441818 233.259274 L 82.71 241.060036 L 83.978182 233.157482 L 86.514545 221.541987 L 87.782727 220.035735 L 89.050909 218.984632 L 90.319091 220.641106 L 91.587273 284.076782 L 92.855455 287.095564 L 94.123636 280.368326 L 95.391818 278.344146 L 96.66 279.981337 L 97.928182 279.205566 L 99.196364 280.106896 L 100.464545 277.22847 L 101.732727 270.644279 L 103.000909 271.208394 L 104.269091 270.793603 L 105.537273 268.804849 L 106.805455 265.814766 L 108.073636 269.053723 L 109.341818 288.081646 L 110.61 287.780306 L 111.878182 288.081646 L 113.146364 288.121107 L 114.414545 286.852519 L 115.682727 286.397818 L 116.950909 286.918886 L 118.219091 285.637742 L 119.487273 283.392041 L 120.755455 279.657576 L 122.023636 275.506527 L 123.291818 279.613631 L 124.56 284.71713 L 125.828182 284.412203 L 127.096364 289.047997 L 128.364545 289.346198 L 129.632727 290.087889 L 130.900909 289.41391 L 132.169091 289.148444 L 133.437273 288.273571 L 135.973636 287.285696 L 137.241818 287.81035 L 138.51 287.203634 L 139.778182 287.496454 L 141.046364 289.439022 L 142.314545 288.934098 L 143.582727 290.792361 L 144.850909 295.923663 L 146.119091 296.866696 L 147.387273 296.242043 L 148.655455 293.928182 L 149.923636 296.033975 L 151.191818 296.624099 L 152.46 294.209343 L 153.728182 294.382883 L 154.996364 293.96854 L 156.264545 292.811609 L 157.532727 289.71525 L 158.800909 288.420654 L 161.337273 281.985787 L 162.605455 293.347923 L 163.873636 292.67215 L 166.41 290.943928 L 167.678182 291.340783 L 168.946364 291.16231 L 170.214545 291.460063 L 171.482727 291.437193 L 172.750909 292.005793 L 174.019091 292.210723 L 175.287273 291.767681 L 176.555455 290.411202 L 177.823636 292.100859 L 179.091818 293.505768 L 180.36 295.838014 L 181.628182 296.177919 L 184.164545 296.42769 L 186.700909 295.135784 L 187.969091 295.061346 L 189.237273 295.172555 L 190.505455 295.646538 L 191.773636 295.020988 L 193.041818 294.160465 L 194.31 294.340731 L 195.578182 294.955518 L 196.846364 295.070315 L 198.114545 297.117364 L 199.382727 298.398957 L 200.650909 297.665785 L 203.187273 297.585966 L 205.723636 296.511994 L 206.991818 295.841153 L 210.796364 295.323673 L 212.064545 295.35596 L 213.332727 294.893636 L 214.600909 294.003965 L 215.869091 296.821854 L 217.137273 297.104809 L 218.405455 298.48909 L 219.673636 300.415514 L 220.941818 301.936564 L 222.21 301.294871 L 223.478182 300.796225 L 227.282727 302.762559 L 228.550909 304.213206 L 229.819091 304.250874 L 231.087273 304.417239 L 232.355455 304.460287 L 234.891818 303.893032 L 236.16 303.039684 L 238.696364 303.8881 L 241.232727 303.614113 L 243.769091 304.149979 L 245.037273 304.045944 L 246.305455 304.196166 L 248.841818 304.964314 L 252.646364 304.74369 L 253.914545 304.327554 L 255.182727 304.388988 L 256.450909 304.841895 L 258.987273 304.619029 L 260.255455 304.733825 L 261.523636 304.705126 L 264.06 304.356701 L 267.864545 304.43383 L 269.132727 304.322621 L 271.669091 303.117261 L 272.937273 303.349992 L 274.205455 303.746398 L 276.741818 303.310083 L 278.01 303.383624 L 280.546364 303.302011 L 281.814545 302.902018 L 283.082727 302.194855 L 285.619091 299.874716 L 286.887273 301.493074 L 288.155455 301.923111 L 290.691818 302.376467 L 293.228182 301.321776 L 294.496364 297.52229 L 295.764545 296.858176 L 297.032727 292.497265 L 298.300909 287.565511 L 299.569091 291.465444 L 300.837273 290.614786 L 302.105455 291.272174 L 303.373636 291.285627 L 304.641818 291.721942 L 305.91 295.117847 L 307.178182 293.126402 L 308.446364 292.169019 L 310.982727 291.829563 L 312.250909 292.243906 L 313.519091 289.686551 L 314.787273 285.652091 L 317.323636 280.827063 L 318.591818 274.4765 L 319.86 272.630791 L 321.128182 273.685033 L 322.396364 275.185904 L 324.932727 278.873285 L 326.200909 278.911849 L 327.469091 279.73336 L 328.737273 280.388505 L 330.005455 279.830219 L 331.273636 280.198822 L 332.541818 279.36924 L 333.81 279.673271 L 335.078182 279.740983 L 336.346364 278.228004 L 337.614545 277.238335 L 338.882727 275.750469 L 340.150909 270.998533 L 341.419091 273.309255 L 342.687273 271.657266 L 343.955455 263.569064 L 345.223636 248.528965 L 346.491818 244.455493 L 347.76 244.802572 L 349.028182 248.526275 L 350.296364 256.174125 L 351.564545 252.233386 L 352.832727 252.704678 L 354.100909 252.127109 L 355.369091 253.120366 L 356.637273 255.934667 L 357.905455 260.739517 L 359.173636 260.344456 L 360.441818 261.749813 L 361.71 259.548954 L 364.246364 251.924422 L 365.514545 251.93922 L 366.782727 251.346854 L 368.050909 253.401078 L 369.319091 256.654386 L 370.587273 258.631481 L 371.855455 258.305478 L 373.123636 259.80052 L 374.391818 260.717544 L 375.66 260.620236 L 378.196364 261.960124 L 379.464545 261.282108 L 380.732727 260.070022 L 383.269091 260.807677 L 384.537273 260.042668 L 385.805455 258.327451 L 387.073636 259.294699 L 388.341818 261.078076 L 389.61 262.337247 L 390.878182 262.969075 L 392.146364 261.422913 L 393.414545 257.511321 L 394.682727 255.375932 L 395.950909 253.656679 L 397.219091 249.263482 L 398.487273 247.347371 L 398.487273 247.347371" clip-path="url(#p7afac4808e)" style="fill:none;stroke:#b3de69;stroke-linecap:square;stroke-opacity:.8;stroke-width:1.5"/></g><g id="line2d_38"><path d="M 73.832727 164.198582 L 75.100909 258.524757 L 76.369091 258.885737 L 77.637273 256.604611 L 78.905455 257.550334 L 80.173636 257.56872 L 81.441818 256.227487 L 82.71 249.891274 L 83.978182 254.343215 L 85.246364 276.677807 L 86.514545 274.837928 L 87.782727 268.420102 L 89.050909 265.721045 L 90.319091 268.262705 L 92.855455 272.39806 L 94.123636 271.925871 L 95.391818 273.731669 L 96.66 271.250995 L 97.928182 271.800313 L 99.196364 272.17923 L 100.464545 272.794017 L 101.732727 274.405649 L 103.000909 275.685447 L 104.269091 274.466186 L 105.537273 271.839325 L 106.805455 269.722321 L 109.341818 271.246062 L 110.61 274.20341 L 111.878182 285.63819 L 113.146364 285.38797 L 114.414545 284.416238 L 115.682727 282.323001 L 116.950909 282.179057 L 118.219091 280.579085 L 119.487273 279.353097 L 120.755455 282.432416 L 122.023636 281.685792 L 123.291818 282.714026 L 124.56 282.258876 L 125.828182 281.355753 L 128.364545 277.438332 L 130.900909 279.304667 L 132.169091 278.487193 L 133.437273 276.922646 L 135.973636 277.339679 L 137.241818 278.027559 L 138.51 279.689862 L 139.778182 278.786739 L 141.046364 278.841447 L 142.314545 279.260722 L 144.850909 279.029336 L 146.119091 279.661163 L 147.387273 284.633275 L 148.655455 284.693812 L 149.923636 283.59114 L 151.191818 282.774114 L 152.46 282.23511 L 153.728182 282.597436 L 154.996364 283.240922 L 156.264545 285.446714 L 157.532727 285.357029 L 158.800909 284.777667 L 160.069091 284.430139 L 162.605455 284.646279 L 163.873636 284.339558 L 165.141818 283.827459 L 166.41 283.134198 L 167.678182 281.85978 L 168.946364 280.923025 L 170.214545 280.864282 L 171.482727 280.167433 L 172.750909 278.711852 L 175.287273 278.628894 L 176.555455 282.768285 L 177.823636 283.332849 L 179.091818 284.192475 L 181.628182 285.195149 L 182.896364 285.49335 L 184.164545 284.245838 L 185.432727 282.609991 L 186.700909 282.440936 L 187.969091 283.649884 L 189.237273 284.001447 L 190.505455 284.571841 L 193.041818 285.122056 L 194.31 284.815335 L 196.846364 285.083043 L 198.114545 284.807711 L 199.382727 283.748537 L 200.650909 281.76023 L 201.919091 276.228039 L 203.187273 269.046548 L 204.455455 270.817818 L 205.723636 274.790395 L 206.991818 276.124453 L 208.26 277.785411 L 209.528182 277.697969 L 210.796364 280.267879 L 212.064545 279.366101 L 213.332727 279.045031 L 214.600909 279.493005 L 215.869091 278.894809 L 217.137273 277.525326 L 218.405455 278.525757 L 219.673636 278.902881 L 222.21 281.340507 L 223.478182 283.259308 L 224.746364 284.709058 L 226.014545 284.601437 L 227.282727 283.999654 L 228.550909 283.625669 L 229.819091 283.791137 L 231.087273 282.86918 L 232.355455 281.488486 L 233.623636 280.538727 L 234.891818 281.157102 L 236.16 282.180402 L 237.428182 282.339144 L 238.696364 280.560251 L 239.964545 279.137406 L 241.232727 279.604214 L 242.500909 282.085337 L 243.769091 282.591606 L 245.037273 267.568547 L 246.305455 269.00619 L 247.573636 273.494005 L 248.841818 268.901708 L 250.11 268.935788 L 251.378182 270.973869 L 252.646364 272.795811 L 253.914545 273.642433 L 256.450909 274.484123 L 257.719091 276.102032 L 258.987273 276.228487 L 260.255455 275.774235 L 261.523636 272.884599 L 262.791818 270.60123 L 264.06 271.318706 L 265.328182 272.556802 L 266.596364 272.232144 L 267.864545 272.537071 L 269.132727 273.408357 L 270.400909 274.598022 L 271.669091 275.08187 L 272.937273 276.105171 L 274.205455 276.965246 L 275.473636 275.684999 L 276.741818 275.742397 L 278.01 276.773321 L 279.278182 276.706954 L 280.546364 275.782307 L 281.814545 275.184111 L 283.082727 273.723598 L 284.350909 272.521376 L 285.619091 272.600747 L 286.887273 273.315981 L 288.155455 273.362169 L 289.423636 272.938858 L 290.691818 272.137526 L 291.96 270.035321 L 293.228182 268.230419 L 294.496364 266.144356 L 295.764545 262.862799 L 297.032727 261.061036 L 298.300909 262.70899 L 299.569091 261.771786 L 300.837273 259.582138 L 302.105455 250.019971 L 303.373636 246.831237 L 304.641818 249.75585 L 305.91 253.040995 L 307.178182 250.595746 L 308.446364 248.988599 L 310.982727 252.042806 L 312.250909 252.725754 L 313.519091 256.756626 L 314.787273 259.101877 L 317.323636 255.54992 L 318.591818 254.284023 L 319.86 253.221261 L 321.128182 253.100187 L 322.396364 253.395697 L 323.664545 254.669666 L 324.932727 255.758437 L 326.200909 254.931545 L 327.469091 256.000137 L 328.737273 256.094306 L 330.005455 256.916264 L 331.273636 258.487089 L 332.541818 258.221175 L 333.81 258.300994 L 335.078182 257.467824 L 336.346364 258.696951 L 337.614545 258.750314 L 338.882727 258.998291 L 340.150909 259.103671 L 342.687273 259.751642 L 343.955455 259.176764 L 345.223636 259.919352 L 346.491818 259.85164 L 347.76 260.367774 L 349.028182 260.488849 L 350.296364 261.326951 L 351.564545 263.157861 L 352.832727 263.947982 L 354.100909 258.911297 L 355.369091 255.99341 L 356.637273 256.570979 L 357.905455 256.4656 L 359.173636 255.732877 L 360.441818 254.684016 L 361.71 254.352183 L 362.978182 255.749468 L 364.246364 255.434676 L 365.514545 255.336023 L 366.782727 255.408219 L 368.050909 254.458459 L 369.319091 254.130662 L 370.587273 254.19389 L 371.855455 251.614562 L 373.123636 246.658594 L 374.391818 244.414238 L 375.66 243.991824 L 376.928182 243.291836 L 378.196364 237.626911 L 379.464545 233.718458 L 380.732727 232.219381 L 382.000909 224.447766 L 384.537273 203.221675 L 385.805455 212.183404 L 387.073636 213.835842 L 388.341818 215.909349 L 389.61 214.536278 L 390.878182 212.475327 L 392.146364 216.048808 L 393.414545 216.859557 L 394.682727 218.058639 L 395.950909 221.970231 L 397.219091 221.676514 L 398.487273 218.942032 L 398.487273 218.942032" clip-path="url(#p7afac4808e)" style="fill:none;stroke:#bc82bd;stroke-linecap:square;stroke-opacity:.8;stroke-width:1.5"/></g><g id="line2d_39"><path d="M 73.832727 257.944049 L 75.100909 273.429432 L 76.369091 274.077403 L 77.637273 274.515961 L 78.905455 274.830305 L 80.173636 275.419084 L 81.441818 278.108275 L 82.71 275.779168 L 83.978182 275.299804 L 85.246364 275.068418 L 86.514545 275.294423 L 87.782727 275.314602 L 89.050909 275.63926 L 90.319091 277.451785 L 91.587273 276.063019 L 92.855455 275.62491 L 94.123636 275.49128 L 96.66 275.619081 L 97.928182 275.905174 L 99.196364 277.279142 L 100.464545 276.445972 L 101.732727 276.005173 L 105.537273 276.295302 L 106.805455 276.500231 L 108.073636 279.683585 L 109.341818 278.052671 L 110.61 277.239681 L 111.878182 277.207394 L 113.146364 277.34775 L 115.682727 277.333849 L 116.950909 279.94636 L 118.219091 279.154446 L 119.487273 278.545936 L 120.755455 277.756264 L 122.023636 277.342818 L 123.291818 277.373311 L 124.56 277.684964 L 125.828182 279.333815 L 127.096364 279.006466 L 128.364545 278.517685 L 130.900909 278.170158 L 132.169091 278.303339 L 133.437273 278.638311 L 134.705455 280.382676 L 139.778182 280.792086 L 141.046364 281.374138 L 142.314545 282.136009 L 143.582727 284.10862 L 144.850909 285.636845 L 146.119091 284.932373 L 147.387273 283.712215 L 149.923636 283.523429 L 151.191818 283.697865 L 152.46 284.947619 L 153.728182 284.170951 L 154.996364 283.799657 L 156.264545 283.299217 L 157.532727 283.305944 L 160.069091 283.627463 L 161.337273 284.479018 L 162.605455 284.113553 L 163.873636 284.292922 L 165.141818 284.356598 L 167.678182 284.74269 L 168.946364 285.097841 L 170.214545 286.352528 L 171.482727 286.206342 L 174.019091 284.75973 L 176.555455 283.808626 L 177.823636 283.244061 L 179.091818 283.85571 L 181.628182 282.337799 L 182.896364 281.84005 L 184.164545 281.49297 L 185.432727 280.392541 L 186.700909 278.982251 L 189.237273 280.53783 L 190.505455 280.066538 L 191.773636 279.306461 L 193.041818 279.072833 L 194.31 279.261619 L 195.578182 279.619909 L 196.846364 280.624376 L 199.382727 280.142321 L 200.650909 280.031561 L 201.919091 280.192544 L 204.455455 281.638259 L 208.26 282.192061 L 210.796364 282.871422 L 212.064545 283.003707 L 214.600909 280.634241 L 215.869091 280.664734 L 217.137273 281.120331 L 220.941818 281.445438 L 222.21 281.779064 L 223.478182 281.805073 L 224.746364 281.531086 L 228.550909 281.270104 L 229.819091 281.270553 L 231.087273 280.761144 L 232.355455 281.912694 L 233.623636 284.520272 L 234.891818 283.598764 L 236.16 284.187991 L 237.428182 285.545815 L 238.696364 285.166001 L 239.964545 285.392455 L 241.232727 285.005017 L 242.500909 285.000085 L 243.769091 284.440453 L 245.037273 282.196097 L 246.305455 282.488917 L 248.841818 281.957985 L 250.11 281.238715 L 251.378182 278.721718 L 252.646364 277.667924 L 253.914545 276.858073 L 255.182727 277.090804 L 256.450909 277.438332 L 257.719091 277.606939 L 258.987273 277.574652 L 260.255455 276.728927 L 261.523636 275.527602 L 262.791818 276.929372 L 264.06 278.606473 L 265.328182 279.505561 L 266.596364 286.477638 L 267.864545 286.697365 L 269.132727 288.122901 L 270.400909 289.792827 L 271.669091 289.363238 L 272.937273 289.828701 L 275.473636 290.466358 L 276.741818 290.199995 L 278.01 287.368654 L 279.278182 285.964642 L 280.546364 285.816663 L 283.082727 287.481208 L 285.619091 287.592865 L 286.887273 288.058776 L 288.155455 288.785221 L 289.423636 288.189267 L 290.691818 287.797346 L 293.228182 287.913936 L 294.496364 287.567305 L 295.764545 287.079421 L 298.300909 285.052102 L 299.569091 284.240905 L 300.837273 284.170951 L 302.105455 284.300097 L 304.641818 285.380796 L 305.91 285.463305 L 307.178182 284.016245 L 308.446364 284.060191 L 310.982727 284.540003 L 312.250909 284.509959 L 313.519091 284.127903 L 316.055455 283.743156 L 317.323636 283.691587 L 319.86 283.121642 L 321.128182 282.688914 L 323.664545 282.730617 L 324.932727 282.44273 L 326.200909 282.585777 L 327.469091 283.283522 L 328.737273 284.387988 L 330.005455 285.130127 L 331.273636 286.620685 L 332.541818 286.735481 L 333.81 286.202755 L 335.078182 285.505906 L 336.346364 285.206359 L 337.614545 285.415324 L 338.882727 285.885271 L 340.150909 285.360168 L 341.419091 285.163759 L 342.687273 285.121159 L 343.955455 285.902311 L 345.223636 285.841774 L 346.491818 286.06464 L 347.76 286.526067 L 349.028182 286.706333 L 350.296364 287.025162 L 351.564545 287.124263 L 352.832727 287.353407 L 354.100909 287.813041 L 355.369091 287.665061 L 356.637273 288.73724 L 357.905455 288.888358 L 359.173636 288.309893 L 361.71 288.322001 L 364.246364 288.657645 L 366.782727 289.332166 L 368.050909 289.361613 L 369.319091 289.099285 L 370.587273 288.636812 L 371.855455 288.920738 L 373.123636 288.770479 L 374.391818 288.827336 L 378.196364 288.521642 L 379.464545 288.635056 L 383.269091 289.423943 L 384.537273 289.596063 L 387.073636 290.12537 L 388.341818 290.267576 L 389.61 291.089217 L 390.878182 291.487809 L 393.414545 290.703406 L 394.682727 290.798415 L 395.950909 290.481829 L 397.219091 290.348423 L 398.487273 290.506548 L 398.487273 290.506548" clip-path="url(#p7afac4808e)" style="fill:none;stroke:#ccebc4;stroke-linecap:square;stroke-opacity:.8;stroke-width:1.5"/></g><g id="patch_3"><path d="M 57.6 307.584 L 57.6 41.472" style="fill:none;stroke:#fff;stroke-linecap:square;stroke-linejoin:miter;stroke-width:.8"/></g><g id="patch_4"><path d="M 414.72 307.584 L 414.72 41.472" style="fill:none;stroke:#fff;stroke-linecap:square;stroke-linejoin:miter;stroke-width:.8"/></g><g id="patch_5"><path d="M 57.6 307.584 L 414.72 307.584" style="fill:none;stroke:#fff;stroke-linecap:square;stroke-linejoin:miter;stroke-width:.8"/></g><g id="patch_6"><path d="M 57.6 41.472 L 414.72 41.472" style="fill:none;stroke:#fff;stroke-linecap:square;stroke-linejoin:miter;stroke-width:.8"/></g><g id="legend_1"><g id="patch_7"><path d="M 300.43875 181.575125 L 407.72 181.575125 Q 409.72 181.575125 409.72 179.575125 L 409.72 48.472 Q 409.72 46.472 407.72 46.472 L 300.43875 46.472 Q 298.43875 46.472 298.43875 48.472 L 298.43875 179.575125 Q 298.43875 181.575125 300.43875 181.575125 z" style="opacity:.8;stroke:#ccc;stroke-linejoin:miter"/></g><g id="line2d_40"><path d="M 302.43875 54.570438 L 322.43875 54.570438" style="fill:none;stroke:#8dd3c7;stroke-linecap:square;stroke-opacity:.8;stroke-width:1.5"/></g><g id="text_18"><g style="fill:#fff" transform="translate(330.43875 58.070438)scale(0.1 -0.1)"><defs><path id="DejaVuSans-66" d="M 19.671875 34.8125 L 19.671875 8.109375 L 35.5 8.109375 Q 43.453125 8.109375 47.28125 11.40625 Q 51.125 14.703125 51.125 21.484375 Q 51.125 28.328125 47.28125 31.5625 Q 43.453125 34.8125 35.5 34.8125 z M 19.671875 64.796875 L 19.671875 42.828125 L 34.28125 42.828125 Q 41.5 42.828125 45.03125 45.53125 Q 48.578125 48.25 48.578125 53.8125 Q 48.578125 59.328125 45.03125 62.0625 Q 41.5 64.796875 34.28125 64.796875 z M 9.8125 72.90625 L 35.015625 72.90625 Q 46.296875 72.90625 52.390625 68.21875 Q 58.5 63.53125 58.5 54.890625 Q 58.5 48.1875 55.375 44.234375 Q 52.25 40.28125 46.1875 39.3125 Q 53.46875 37.75 57.5 32.78125 Q 61.53125 27.828125 61.53125 20.40625 Q 61.53125 10.640625 54.890625 5.3125 Q 48.25 0 35.984375 0 L 9.8125 0 z"/><path id="DejaVuSans-118" d="M 2.984375 54.6875 L 12.5 54.6875 L 29.59375 8.796875 L 46.6875 54.6875 L 56.203125 54.6875 L 35.6875 0 L 23.484375 0 z"/><path id="DejaVuSans-111" d="M 30.609375 48.390625 Q 23.390625 48.390625 19.1875 42.75 Q 14.984375 37.109375 14.984375 27.296875 Q 14.984375 17.484375 19.15625 11.84375 Q 23.34375 6.203125 30.609375 6.203125 Q 37.796875 6.203125 41.984375 11.859375 Q 46.1875 17.53125 46.1875 27.296875 Q 46.1875 37.015625 41.984375 42.703125 Q 37.796875 48.390625 30.609375 48.390625 z M 30.609375 56 Q 42.328125 56 49.015625 48.375 Q 55.71875 40.765625 55.71875 27.296875 Q 55.71875 13.875 49.015625 6.21875 Q 42.328125 -1.421875 30.609375 -1.421875 Q 18.84375 -1.421875 12.171875 6.21875 Q 5.515625 13.875 5.515625 27.296875 Q 5.515625 40.765625 12.171875 48.375 Q 18.84375 56 30.609375 56 z"/></defs><use xlink:href="#DejaVuSans-66"/><use x="68.604" xlink:href="#DejaVuSans-114"/><use x="109.717" xlink:href="#DejaVuSans-97"/><use x="170.996" xlink:href="#DejaVuSans-118"/><use x="230.176" xlink:href="#DejaVuSans-111"/><use x="291.357" xlink:href="#DejaVuSans-32"/><use x="323.145" xlink:href="#DejaVuSans-67"/><use x="392.969" xlink:href="#DejaVuSans-97"/><use x="454.248" xlink:href="#DejaVuSans-115"/><use x="506.348" xlink:href="#DejaVuSans-101"/></g></g><g id="line2d_42"><path d="M 302.43875 69.248563 L 322.43875 69.248563" style="fill:none;stroke:#feffb3;stroke-linecap:square;stroke-opacity:.8;stroke-width:1.5"/></g><g id="text_19"><g style="fill:#fff" transform="translate(330.43875 72.748563)scale(0.1 -0.1)"><defs><path id="DejaVuSans-104" d="M 54.890625 33.015625 L 54.890625 0 L 45.90625 0 L 45.90625 32.71875 Q 45.90625 40.484375 42.875 44.328125 Q 39.84375 48.1875 33.796875 48.1875 Q 26.515625 48.1875 22.3125 43.546875 Q 18.109375 38.921875 18.109375 30.90625 L 18.109375 0 L 9.078125 0 L 9.078125 75.984375 L 18.109375 75.984375 L 18.109375 46.1875 Q 21.34375 51.125 25.703125 53.5625 Q 30.078125 56 35.796875 56 Q 45.21875 56 50.046875 50.171875 Q 54.890625 44.34375 54.890625 33.015625 z"/><path id="DejaVuSans-110" d="M 54.890625 33.015625 L 54.890625 0 L 45.90625 0 L 45.90625 32.71875 Q 45.90625 40.484375 42.875 44.328125 Q 39.84375 48.1875 33.796875 48.1875 Q 26.515625 48.1875 22.3125 43.546875 Q 18.109375 38.921875 18.109375 30.90625 L 18.109375 0 L 9.078125 0 L 9.078125 54.6875 L 18.109375 54.6875 L 18.109375 46.1875 Q 21.34375 51.125 25.703125 53.5625 Q 30.078125 56 35.796875 56 Q 45.21875 56 50.046875 50.171875 Q 54.890625 44.34375 54.890625 33.015625 z"/><path id="DejaVuSans-120" d="M 54.890625 54.6875 L 35.109375 28.078125 L 55.90625 0 L 45.3125 0 L 29.390625 21.484375 L 13.484375 0 L 2.875 0 L 24.125 28.609375 L 4.6875 54.6875 L 15.28125 54.6875 L 29.78125 35.203125 L 44.28125 54.6875 z"/></defs><use xlink:href="#DejaVuSans-80"/><use x="60.303" xlink:href="#DejaVuSans-104"/><use x="123.682" xlink:href="#DejaVuSans-111"/><use x="184.863" xlink:href="#DejaVuSans-101"/><use x="246.387" xlink:href="#DejaVuSans-110"/><use x="309.766" xlink:href="#DejaVuSans-105"/><use x="337.549" xlink:href="#DejaVuSans-120"/><use x="396.729" xlink:href="#DejaVuSans-32"/><use x="428.516" xlink:href="#DejaVuSans-67"/><use x="498.34" xlink:href="#DejaVuSans-97"/><use x="559.619" xlink:href="#DejaVuSans-115"/><use x="611.719" xlink:href="#DejaVuSans-101"/></g></g><g id="line2d_44"><path d="M 302.43875 83.926688 L 322.43875 83.926688" style="fill:none;stroke:#bfbbd9;stroke-linecap:square;stroke-opacity:.8;stroke-width:1.5"/></g><g id="text_20"><g style="fill:#fff" transform="translate(330.43875 87.426688)scale(0.1 -0.1)"><defs><path id="DejaVuSans-107" d="M 9.078125 75.984375 L 18.109375 75.984375 L 18.109375 31.109375 L 44.921875 54.6875 L 56.390625 54.6875 L 27.390625 29.109375 L 57.625 0 L 45.90625 0 L 18.109375 26.703125 L 18.109375 0 L 9.078125 0 z"/><path id="DejaVuSans-117" d="M 8.5 21.578125 L 8.5 54.6875 L 17.484375 54.6875 L 17.484375 21.921875 Q 17.484375 14.15625 20.5 10.265625 Q 23.53125 6.390625 29.59375 6.390625 Q 36.859375 6.390625 41.078125 11.03125 Q 45.3125 15.671875 45.3125 23.6875 L 45.3125 54.6875 L 54.296875 54.6875 L 54.296875 0 L 45.3125 0 L 45.3125 8.40625 Q 42.046875 3.421875 37.71875 1 Q 33.40625 -1.421875 27.6875 -1.421875 Q 18.265625 -1.421875 13.375 4.4375 Q 8.5 10.296875 8.5 21.578125 z M 31.109375 56 z"/></defs><use xlink:href="#DejaVuSans-66"/><use x="68.604" xlink:href="#DejaVuSans-114"/><use x="107.467" xlink:href="#DejaVuSans-101"/><use x="168.99" xlink:href="#DejaVuSans-97"/><use x="230.27" xlink:href="#DejaVuSans-107"/><use x="284.555" xlink:href="#DejaVuSans-111"/><use x="345.736" xlink:href="#DejaVuSans-117"/><use x="409.115" xlink:href="#DejaVuSans-116"/><use x="448.324" xlink:href="#DejaVuSans-32"/><use x="480.111" xlink:href="#DejaVuSans-67"/><use x="549.936" xlink:href="#DejaVuSans-97"/><use x="611.215" xlink:href="#DejaVuSans-115"/><use x="663.314" xlink:href="#DejaVuSans-101"/></g></g><g id="line2d_46"><path d="M 302.43875 98.604813 L 322.43875 98.604813" style="fill:none;stroke:#fa8174;stroke-linecap:square;stroke-opacity:.8;stroke-width:1.5"/></g><g id="text_21"><g style="fill:#fff" transform="translate(330.43875 102.104813)scale(0.1 -0.1)"><defs><path id="DejaVuSans-86" d="M 28.609375 0 L 0.78125 72.90625 L 11.078125 72.90625 L 34.1875 11.53125 L 57.328125 72.90625 L 67.578125 72.90625 L 39.796875 0 z"/><path id="DejaVuSans-103" d="M 45.40625 27.984375 Q 45.40625 37.75 41.375 43.109375 Q 37.359375 48.484375 30.078125 48.484375 Q 22.859375 48.484375 18.828125 43.109375 Q 14.796875 37.75 14.796875 27.984375 Q 14.796875 18.265625 18.828125 12.890625 Q 22.859375 7.515625 30.078125 7.515625 Q 37.359375 7.515625 41.375 12.890625 Q 45.40625 18.265625 45.40625 27.984375 z M 54.390625 6.78125 Q 54.390625 -7.171875 48.1875 -13.984375 Q 42 -20.796875 29.203125 -20.796875 Q 24.46875 -20.796875 20.265625 -20.09375 Q 16.0625 -19.390625 12.109375 -17.921875 L 12.109375 -9.1875 Q 16.0625 -11.328125 19.921875 -12.34375 Q 23.78125 -13.375 27.78125 -13.375 Q 36.625 -13.375 41.015625 -8.765625 Q 45.40625 -4.15625 45.40625 5.171875 L 45.40625 9.625 Q 42.625 4.78125 38.28125 2.390625 Q 33.9375 0 27.875 0 Q 17.828125 0 11.671875 7.65625 Q 5.515625 15.328125 5.515625 27.984375 Q 5.515625 40.671875 11.671875 48.328125 Q 17.828125 56 27.875 56 Q 33.9375 56 38.28125 53.609375 Q 42.625 51.21875 45.40625 46.390625 L 45.40625 54.6875 L 54.390625 54.6875 z"/><path id="DejaVuSans-100" d="M 45.40625 46.390625 L 45.40625 75.984375 L 54.390625 75.984375 L 54.390625 0 L 45.40625 0 L 45.40625 8.203125 Q 42.578125 3.328125 38.25 0.953125 Q 33.9375 -1.421875 27.875 -1.421875 Q 17.96875 -1.421875 11.734375 6.484375 Q 5.515625 14.40625 5.515625 27.296875 Q 5.515625 40.1875 11.734375 48.09375 Q 17.96875 56 27.875 56 Q 33.9375 56 38.25 53.625 Q 42.578125 51.265625 45.40625 46.390625 z M 14.796875 27.296875 Q 14.796875 17.390625 18.875 11.75 Q 22.953125 6.109375 30.078125 6.109375 Q 37.203125 6.109375 41.296875 11.75 Q 45.40625 17.390625 45.40625 27.296875 Q 45.40625 37.203125 41.296875 42.84375 Q 37.203125 48.484375 30.078125 48.484375 Q 22.953125 48.484375 18.875 42.84375 Q 14.796875 37.203125 14.796875 27.296875 z"/></defs><use xlink:href="#DejaVuSans-86"/><use x="60.658" xlink:href="#DejaVuSans-97"/><use x="121.938" xlink:href="#DejaVuSans-110"/><use x="185.316" xlink:href="#DejaVuSans-103"/><use x="248.793" xlink:href="#DejaVuSans-117"/><use x="312.172" xlink:href="#DejaVuSans-97"/><use x="373.451" xlink:href="#DejaVuSans-114"/><use x="412.814" xlink:href="#DejaVuSans-100"/><use x="476.291" xlink:href="#DejaVuSans-32"/><use x="508.078" xlink:href="#DejaVuSans-67"/><use x="577.902" xlink:href="#DejaVuSans-97"/><use x="639.182" xlink:href="#DejaVuSans-115"/><use x="691.281" xlink:href="#DejaVuSans-101"/></g></g><g id="line2d_48"><path d="M 302.43875 113.282938 L 322.43875 113.282938" style="fill:none;stroke:#81b1d2;stroke-linecap:square;stroke-opacity:.8;stroke-width:1.5"/></g><g id="text_22"><g style="fill:#fff" transform="translate(330.43875 116.782938)scale(0.1 -0.1)"><defs><path id="DejaVuSans-70" d="M 9.8125 72.90625 L 51.703125 72.90625 L 51.703125 64.59375 L 19.671875 64.59375 L 19.671875 43.109375 L 48.578125 43.109375 L 48.578125 34.8125 L 19.671875 34.8125 L 19.671875 0 L 9.8125 0 z"/></defs><use xlink:href="#DejaVuSans-70"/><use x="48.395" xlink:href="#DejaVuSans-97"/><use x="109.674" xlink:href="#DejaVuSans-108"/><use x="137.457" xlink:href="#DejaVuSans-99"/><use x="192.438" xlink:href="#DejaVuSans-104"/><use x="255.816" xlink:href="#DejaVuSans-105"/><use x="283.6" xlink:href="#DejaVuSans-111"/><use x="344.781" xlink:href="#DejaVuSans-110"/><use x="408.16" xlink:href="#DejaVuSans-32"/><use x="439.947" xlink:href="#DejaVuSans-67"/><use x="509.771" xlink:href="#DejaVuSans-97"/><use x="571.051" xlink:href="#DejaVuSans-115"/><use x="623.15" xlink:href="#DejaVuSans-101"/></g></g><g id="line2d_50"><path d="M 302.43875 127.961063 L 322.43875 127.961063" style="fill:none;stroke:#fdb462;stroke-linecap:square;stroke-opacity:.8;stroke-width:1.5"/></g><g id="text_23"><g style="fill:#fff" transform="translate(330.43875 131.461063)scale(0.1 -0.1)"><defs><path id="DejaVuSans-87" d="M 3.328125 72.90625 L 13.28125 72.90625 L 28.609375 11.28125 L 43.890625 72.90625 L 54.984375 72.90625 L 70.3125 11.28125 L 85.59375 72.90625 L 95.609375 72.90625 L 77.296875 0 L 64.890625 0 L 49.515625 63.28125 L 33.984375 0 L 21.578125 0 z"/></defs><use xlink:href="#DejaVuSans-87"/><use x="96.627" xlink:href="#DejaVuSans-105"/><use x="124.41" xlink:href="#DejaVuSans-108"/><use x="152.193" xlink:href="#DejaVuSans-100"/><use x="215.67" xlink:href="#DejaVuSans-102"/><use x="250.875" xlink:href="#DejaVuSans-105"/><use x="278.658" xlink:href="#DejaVuSans-114"/><use x="317.521" xlink:href="#DejaVuSans-101"/><use x="379.045" xlink:href="#DejaVuSans-32"/><use x="410.832" xlink:href="#DejaVuSans-67"/><use x="480.656" xlink:href="#DejaVuSans-97"/><use x="541.936" xlink:href="#DejaVuSans-115"/><use x="594.035" xlink:href="#DejaVuSans-101"/></g></g><g id="line2d_52"><path d="M 302.43875 142.639188 L 322.43875 142.639188" style="fill:none;stroke:#b3de69;stroke-linecap:square;stroke-opacity:.8;stroke-width:1.5"/></g><g id="text_24"><g style="fill:#fff" transform="translate(330.43875 146.139188)scale(0.1 -0.1)"><defs><path id="DejaVuSans-72" d="M 9.8125 72.90625 L 19.671875 72.90625 L 19.671875 43.015625 L 55.515625 43.015625 L 55.515625 72.90625 L 65.375 72.90625 L 65.375 0 L 55.515625 0 L 55.515625 34.71875 L 19.671875 34.71875 L 19.671875 0 L 9.8125 0 z"/></defs><use xlink:href="#DejaVuSans-72"/><use x="75.195" xlink:href="#DejaVuSans-121"/><use x="134.375" xlink:href="#DejaVuSans-100"/><use x="197.852" xlink:href="#DejaVuSans-114"/><use x="238.965" xlink:href="#DejaVuSans-97"/><use x="300.244" xlink:href="#DejaVuSans-32"/><use x="332.031" xlink:href="#DejaVuSans-67"/><use x="401.855" xlink:href="#DejaVuSans-97"/><use x="463.135" xlink:href="#DejaVuSans-115"/><use x="515.234" xlink:href="#DejaVuSans-101"/></g></g><g id="line2d_54"><path d="M 302.43875 157.317313 L 322.43875 157.317313" style="fill:none;stroke:#bc82bd;stroke-linecap:square;stroke-opacity:.8;stroke-width:1.5"/></g><g id="text_25"><g style="fill:#fff" transform="translate(330.43875 160.817313)scale(0.1 -0.1)"><defs><path id="DejaVuSans-98" d="M 48.6875 27.296875 Q 48.6875 37.203125 44.609375 42.84375 Q 40.53125 48.484375 33.40625 48.484375 Q 26.265625 48.484375 22.1875 42.84375 Q 18.109375 37.203125 18.109375 27.296875 Q 18.109375 17.390625 22.1875 11.75 Q 26.265625 6.109375 33.40625 6.109375 Q 40.53125 6.109375 44.609375 11.75 Q 48.6875 17.390625 48.6875 27.296875 z M 18.109375 46.390625 Q 20.953125 51.265625 25.265625 53.625 Q 29.59375 56 35.59375 56 Q 45.5625 56 51.78125 48.09375 Q 58.015625 40.1875 58.015625 27.296875 Q 58.015625 14.40625 51.78125 6.484375 Q 45.5625 -1.421875 35.59375 -1.421875 Q 29.59375 -1.421875 25.265625 0.953125 Q 20.953125 3.328125 18.109375 8.203125 L 18.109375 0 L 9.078125 0 L 9.078125 75.984375 L 18.109375 75.984375 z"/></defs><use xlink:href="#DejaVuSans-83"/><use x="63.477" xlink:href="#DejaVuSans-104"/><use x="126.855" xlink:href="#DejaVuSans-97"/><use x="188.135" xlink:href="#DejaVuSans-116"/><use x="227.344" xlink:href="#DejaVuSans-116"/><use x="266.553" xlink:href="#DejaVuSans-101"/><use x="328.076" xlink:href="#DejaVuSans-114"/><use x="366.939" xlink:href="#DejaVuSans-101"/><use x="428.463" xlink:href="#DejaVuSans-100"/><use x="491.939" xlink:href="#DejaVuSans-32"/><use x="523.727" xlink:href="#DejaVuSans-87"/><use x="616.729" xlink:href="#DejaVuSans-101"/><use x="678.252" xlink:href="#DejaVuSans-98"/></g></g><g id="line2d_56"><path d="M 302.43875 171.995438 L 322.43875 171.995438" style="fill:none;stroke:#ccebc4;stroke-linecap:square;stroke-opacity:.8;stroke-width:1.5"/></g><g id="text_26"><g style="fill:#fff" transform="translate(330.43875 175.495438)scale(0.1 -0.1)"><use xlink:href="#DejaVuSans-66"/><use x="68.604" xlink:href="#DejaVuSans-114"/><use x="107.467" xlink:href="#DejaVuSans-111"/><use x="168.648" xlink:href="#DejaVuSans-107"/><use x="222.934" xlink:href="#DejaVuSans-101"/><use x="284.457" xlink:href="#DejaVuSans-110"/><use x="347.836" xlink:href="#DejaVuSans-32"/><use x="379.623" xlink:href="#DejaVuSans-70"/><use x="428.018" xlink:href="#DejaVuSans-97"/><use x="489.297" xlink:href="#DejaVuSans-110"/><use x="552.676" xlink:href="#DejaVuSans-103"/></g></g></g></g></g><defs><clipPath id="p7afac4808e"><rect width="357.12" height="266.112" x="57.6" y="41.472"/></clipPath></defs></svg>